M48
; DRILL file {KiCad 9.0.1-9.0.1-0~ubuntu24.04.1} date 2025-05-06T13:20:34-0600
; FORMAT={-:-/ absolute / metric / decimal}
; #@! TF.CreationDate,2025-05-06T13:20:34-06:00
; #@! TF.GenerationSoftware,Kicad,Pcbnew,9.0.1-9.0.1-0~ubuntu24.04.1
; #@! TF.FileFunction,Plated,1,2,PTH
FMAT,2
METRIC
; #@! TA.AperFunction,Plated,PTH,ComponentDrill
T1C0.762
; #@! TA.AperFunction,Plated,PTH,ComponentDrill
T2C0.800
; #@! TA.AperFunction,Plated,PTH,ComponentDrill
T3C0.950
; #@! TA.AperFunction,Plated,PTH,ComponentDrill
T4C1.100
%
G90
G05
T1
X139.0Y-65.725
X139.0Y-68.225
X139.0Y-70.725
X139.0Y-73.225
X139.0Y-75.725
X139.0Y-78.225
X139.0Y-80.725
X139.0Y-83.225
X139.0Y-85.725
X139.0Y-88.225
X139.0Y-90.725
X139.0Y-93.225
X139.0Y-95.725
X139.0Y-98.225
X139.0Y-100.725
X139.0Y-103.225
X139.0Y-105.725
X139.0Y-108.225
X139.0Y-110.725
X165.0Y-65.725
X165.0Y-68.225
X165.0Y-70.725
X165.0Y-73.225
X165.0Y-75.725
X165.0Y-78.225
X165.0Y-80.725
X165.0Y-83.225
X165.0Y-85.725
X165.0Y-88.225
X165.0Y-90.725
X165.0Y-93.225
X165.0Y-95.725
X165.0Y-98.225
X165.0Y-100.725
X165.0Y-103.225
X165.0Y-105.725
X165.0Y-108.225
X165.0Y-110.725
T2
X113.5Y-81.105
X113.5Y-88.725
X116.04Y-81.105
X116.04Y-88.725
X118.58Y-81.105
X118.58Y-88.725
X121.12Y-81.105
X121.12Y-88.725
X123.66Y-81.105
X123.66Y-88.725
X126.2Y-81.105
X126.2Y-88.725
X128.74Y-81.105
X128.74Y-88.725
X131.28Y-81.105
X131.28Y-88.725
X172.76Y-81.105
X172.76Y-88.725
X175.3Y-81.105
X175.3Y-88.725
X177.84Y-81.105
X177.84Y-88.725
X180.38Y-81.105
X180.38Y-88.725
X182.92Y-81.105
X182.92Y-88.725
X185.46Y-81.105
X185.46Y-88.725
X188.0Y-81.105
X188.0Y-88.725
X190.54Y-81.105
X190.54Y-88.725
T3
X116.0Y-61.725
X116.0Y-111.225
X118.5Y-61.725
X118.5Y-111.225
X121.0Y-61.725
X121.0Y-111.225
X123.5Y-61.725
X123.5Y-111.225
X126.0Y-61.725
X126.0Y-111.225
X128.5Y-61.725
X128.5Y-111.225
X175.5Y-62.0
X175.5Y-111.525
X178.0Y-62.0
X178.0Y-111.525
X179.5Y-121.692
X180.5Y-62.0
X180.5Y-111.525
X182.0Y-121.692
X183.0Y-62.0
X183.0Y-111.525
X184.5Y-121.692
X185.5Y-62.0
X185.5Y-111.525
X188.0Y-62.0
X188.0Y-111.525
T4
X116.0Y-66.645
X116.0Y-76.805
X116.0Y-94.145
X116.0Y-104.305
X128.5Y-66.645
X128.5Y-76.805
X128.5Y-94.145
X128.5Y-104.305
X175.5Y-66.64
X175.5Y-76.8
X175.5Y-95.145
X175.5Y-105.305
X187.92Y-95.145
X187.92Y-105.305
X188.0Y-66.72
X188.0Y-76.88
M30
