%TF.GenerationSoftware,KiCad,Pcbnew,9.0.1-9.0.1-0~ubuntu24.04.1*%
%TF.CreationDate,2025-05-06T13:20:29-06:00*%
%TF.ProjectId,wheels-pcb,77686565-6c73-42d7-9063-622e6b696361,1.0.0*%
%TF.SameCoordinates,Original*%
%TF.FileFunction,Legend,Top*%
%TF.FilePolarity,Positive*%
%FSLAX46Y46*%
G04 Gerber Fmt 4.6, Leading zero omitted, Abs format (unit mm)*
G04 Created by KiCad (PCBNEW 9.0.1-9.0.1-0~ubuntu24.04.1) date 2025-05-06 13:20:29*
%MOMM*%
%LPD*%
G01*
G04 APERTURE LIST*
%ADD10C,0.100000*%
%ADD11C,0.150000*%
%ADD12C,0.300000*%
%ADD13C,0.400000*%
%ADD14C,0.120000*%
G04 APERTURE END LIST*
D10*
D11*
X177002200Y-166007200D02*
X285002200Y-166007200D01*
X285002200Y-198007200D01*
X177002200Y-198007200D01*
X177002200Y-166007200D01*
D10*
D11*
X10000000Y-10000000D02*
X287002200Y-10000000D01*
X287002200Y-200007200D01*
X10000000Y-200007200D01*
X10000000Y-10000000D01*
D10*
D11*
X12000000Y-12000000D02*
X285002200Y-12000000D01*
X285002200Y-198007200D01*
X12000000Y-198007200D01*
X12000000Y-12000000D01*
D10*
D11*
X60000000Y-12000000D02*
X60000000Y-10000000D01*
D10*
D11*
X110000000Y-12000000D02*
X110000000Y-10000000D01*
D10*
D11*
X160000000Y-12000000D02*
X160000000Y-10000000D01*
D10*
D11*
X210000000Y-12000000D02*
X210000000Y-10000000D01*
D10*
D11*
X260000000Y-12000000D02*
X260000000Y-10000000D01*
D10*
D11*
X36089160Y-11593604D02*
X35346303Y-11593604D01*
X35717731Y-11593604D02*
X35717731Y-10293604D01*
X35717731Y-10293604D02*
X35593922Y-10479319D01*
X35593922Y-10479319D02*
X35470112Y-10603128D01*
X35470112Y-10603128D02*
X35346303Y-10665033D01*
D10*
D11*
X85346303Y-10417414D02*
X85408207Y-10355509D01*
X85408207Y-10355509D02*
X85532017Y-10293604D01*
X85532017Y-10293604D02*
X85841541Y-10293604D01*
X85841541Y-10293604D02*
X85965350Y-10355509D01*
X85965350Y-10355509D02*
X86027255Y-10417414D01*
X86027255Y-10417414D02*
X86089160Y-10541223D01*
X86089160Y-10541223D02*
X86089160Y-10665033D01*
X86089160Y-10665033D02*
X86027255Y-10850747D01*
X86027255Y-10850747D02*
X85284398Y-11593604D01*
X85284398Y-11593604D02*
X86089160Y-11593604D01*
D10*
D11*
X135284398Y-10293604D02*
X136089160Y-10293604D01*
X136089160Y-10293604D02*
X135655826Y-10788842D01*
X135655826Y-10788842D02*
X135841541Y-10788842D01*
X135841541Y-10788842D02*
X135965350Y-10850747D01*
X135965350Y-10850747D02*
X136027255Y-10912652D01*
X136027255Y-10912652D02*
X136089160Y-11036461D01*
X136089160Y-11036461D02*
X136089160Y-11345985D01*
X136089160Y-11345985D02*
X136027255Y-11469795D01*
X136027255Y-11469795D02*
X135965350Y-11531700D01*
X135965350Y-11531700D02*
X135841541Y-11593604D01*
X135841541Y-11593604D02*
X135470112Y-11593604D01*
X135470112Y-11593604D02*
X135346303Y-11531700D01*
X135346303Y-11531700D02*
X135284398Y-11469795D01*
D10*
D11*
X185965350Y-10726938D02*
X185965350Y-11593604D01*
X185655826Y-10231700D02*
X185346303Y-11160271D01*
X185346303Y-11160271D02*
X186151064Y-11160271D01*
D10*
D11*
X236027255Y-10293604D02*
X235408207Y-10293604D01*
X235408207Y-10293604D02*
X235346303Y-10912652D01*
X235346303Y-10912652D02*
X235408207Y-10850747D01*
X235408207Y-10850747D02*
X235532017Y-10788842D01*
X235532017Y-10788842D02*
X235841541Y-10788842D01*
X235841541Y-10788842D02*
X235965350Y-10850747D01*
X235965350Y-10850747D02*
X236027255Y-10912652D01*
X236027255Y-10912652D02*
X236089160Y-11036461D01*
X236089160Y-11036461D02*
X236089160Y-11345985D01*
X236089160Y-11345985D02*
X236027255Y-11469795D01*
X236027255Y-11469795D02*
X235965350Y-11531700D01*
X235965350Y-11531700D02*
X235841541Y-11593604D01*
X235841541Y-11593604D02*
X235532017Y-11593604D01*
X235532017Y-11593604D02*
X235408207Y-11531700D01*
X235408207Y-11531700D02*
X235346303Y-11469795D01*
D10*
D11*
X285965350Y-10293604D02*
X285717731Y-10293604D01*
X285717731Y-10293604D02*
X285593922Y-10355509D01*
X285593922Y-10355509D02*
X285532017Y-10417414D01*
X285532017Y-10417414D02*
X285408207Y-10603128D01*
X285408207Y-10603128D02*
X285346303Y-10850747D01*
X285346303Y-10850747D02*
X285346303Y-11345985D01*
X285346303Y-11345985D02*
X285408207Y-11469795D01*
X285408207Y-11469795D02*
X285470112Y-11531700D01*
X285470112Y-11531700D02*
X285593922Y-11593604D01*
X285593922Y-11593604D02*
X285841541Y-11593604D01*
X285841541Y-11593604D02*
X285965350Y-11531700D01*
X285965350Y-11531700D02*
X286027255Y-11469795D01*
X286027255Y-11469795D02*
X286089160Y-11345985D01*
X286089160Y-11345985D02*
X286089160Y-11036461D01*
X286089160Y-11036461D02*
X286027255Y-10912652D01*
X286027255Y-10912652D02*
X285965350Y-10850747D01*
X285965350Y-10850747D02*
X285841541Y-10788842D01*
X285841541Y-10788842D02*
X285593922Y-10788842D01*
X285593922Y-10788842D02*
X285470112Y-10850747D01*
X285470112Y-10850747D02*
X285408207Y-10912652D01*
X285408207Y-10912652D02*
X285346303Y-11036461D01*
D10*
D11*
X60000000Y-198007200D02*
X60000000Y-200007200D01*
D10*
D11*
X110000000Y-198007200D02*
X110000000Y-200007200D01*
D10*
D11*
X160000000Y-198007200D02*
X160000000Y-200007200D01*
D10*
D11*
X210000000Y-198007200D02*
X210000000Y-200007200D01*
D10*
D11*
X260000000Y-198007200D02*
X260000000Y-200007200D01*
D10*
D11*
X36089160Y-199600804D02*
X35346303Y-199600804D01*
X35717731Y-199600804D02*
X35717731Y-198300804D01*
X35717731Y-198300804D02*
X35593922Y-198486519D01*
X35593922Y-198486519D02*
X35470112Y-198610328D01*
X35470112Y-198610328D02*
X35346303Y-198672233D01*
D10*
D11*
X85346303Y-198424614D02*
X85408207Y-198362709D01*
X85408207Y-198362709D02*
X85532017Y-198300804D01*
X85532017Y-198300804D02*
X85841541Y-198300804D01*
X85841541Y-198300804D02*
X85965350Y-198362709D01*
X85965350Y-198362709D02*
X86027255Y-198424614D01*
X86027255Y-198424614D02*
X86089160Y-198548423D01*
X86089160Y-198548423D02*
X86089160Y-198672233D01*
X86089160Y-198672233D02*
X86027255Y-198857947D01*
X86027255Y-198857947D02*
X85284398Y-199600804D01*
X85284398Y-199600804D02*
X86089160Y-199600804D01*
D10*
D11*
X135284398Y-198300804D02*
X136089160Y-198300804D01*
X136089160Y-198300804D02*
X135655826Y-198796042D01*
X135655826Y-198796042D02*
X135841541Y-198796042D01*
X135841541Y-198796042D02*
X135965350Y-198857947D01*
X135965350Y-198857947D02*
X136027255Y-198919852D01*
X136027255Y-198919852D02*
X136089160Y-199043661D01*
X136089160Y-199043661D02*
X136089160Y-199353185D01*
X136089160Y-199353185D02*
X136027255Y-199476995D01*
X136027255Y-199476995D02*
X135965350Y-199538900D01*
X135965350Y-199538900D02*
X135841541Y-199600804D01*
X135841541Y-199600804D02*
X135470112Y-199600804D01*
X135470112Y-199600804D02*
X135346303Y-199538900D01*
X135346303Y-199538900D02*
X135284398Y-199476995D01*
D10*
D11*
X185965350Y-198734138D02*
X185965350Y-199600804D01*
X185655826Y-198238900D02*
X185346303Y-199167471D01*
X185346303Y-199167471D02*
X186151064Y-199167471D01*
D10*
D11*
X236027255Y-198300804D02*
X235408207Y-198300804D01*
X235408207Y-198300804D02*
X235346303Y-198919852D01*
X235346303Y-198919852D02*
X235408207Y-198857947D01*
X235408207Y-198857947D02*
X235532017Y-198796042D01*
X235532017Y-198796042D02*
X235841541Y-198796042D01*
X235841541Y-198796042D02*
X235965350Y-198857947D01*
X235965350Y-198857947D02*
X236027255Y-198919852D01*
X236027255Y-198919852D02*
X236089160Y-199043661D01*
X236089160Y-199043661D02*
X236089160Y-199353185D01*
X236089160Y-199353185D02*
X236027255Y-199476995D01*
X236027255Y-199476995D02*
X235965350Y-199538900D01*
X235965350Y-199538900D02*
X235841541Y-199600804D01*
X235841541Y-199600804D02*
X235532017Y-199600804D01*
X235532017Y-199600804D02*
X235408207Y-199538900D01*
X235408207Y-199538900D02*
X235346303Y-199476995D01*
D10*
D11*
X285965350Y-198300804D02*
X285717731Y-198300804D01*
X285717731Y-198300804D02*
X285593922Y-198362709D01*
X285593922Y-198362709D02*
X285532017Y-198424614D01*
X285532017Y-198424614D02*
X285408207Y-198610328D01*
X285408207Y-198610328D02*
X285346303Y-198857947D01*
X285346303Y-198857947D02*
X285346303Y-199353185D01*
X285346303Y-199353185D02*
X285408207Y-199476995D01*
X285408207Y-199476995D02*
X285470112Y-199538900D01*
X285470112Y-199538900D02*
X285593922Y-199600804D01*
X285593922Y-199600804D02*
X285841541Y-199600804D01*
X285841541Y-199600804D02*
X285965350Y-199538900D01*
X285965350Y-199538900D02*
X286027255Y-199476995D01*
X286027255Y-199476995D02*
X286089160Y-199353185D01*
X286089160Y-199353185D02*
X286089160Y-199043661D01*
X286089160Y-199043661D02*
X286027255Y-198919852D01*
X286027255Y-198919852D02*
X285965350Y-198857947D01*
X285965350Y-198857947D02*
X285841541Y-198796042D01*
X285841541Y-198796042D02*
X285593922Y-198796042D01*
X285593922Y-198796042D02*
X285470112Y-198857947D01*
X285470112Y-198857947D02*
X285408207Y-198919852D01*
X285408207Y-198919852D02*
X285346303Y-199043661D01*
D10*
D11*
X10000000Y-60000000D02*
X12000000Y-60000000D01*
D10*
D11*
X10000000Y-110000000D02*
X12000000Y-110000000D01*
D10*
D11*
X10000000Y-160000000D02*
X12000000Y-160000000D01*
D10*
D11*
X10690476Y-35222176D02*
X11309523Y-35222176D01*
X10566666Y-35593604D02*
X10999999Y-34293604D01*
X10999999Y-34293604D02*
X11433333Y-35593604D01*
D10*
D11*
X11092857Y-84912652D02*
X11278571Y-84974557D01*
X11278571Y-84974557D02*
X11340476Y-85036461D01*
X11340476Y-85036461D02*
X11402380Y-85160271D01*
X11402380Y-85160271D02*
X11402380Y-85345985D01*
X11402380Y-85345985D02*
X11340476Y-85469795D01*
X11340476Y-85469795D02*
X11278571Y-85531700D01*
X11278571Y-85531700D02*
X11154761Y-85593604D01*
X11154761Y-85593604D02*
X10659523Y-85593604D01*
X10659523Y-85593604D02*
X10659523Y-84293604D01*
X10659523Y-84293604D02*
X11092857Y-84293604D01*
X11092857Y-84293604D02*
X11216666Y-84355509D01*
X11216666Y-84355509D02*
X11278571Y-84417414D01*
X11278571Y-84417414D02*
X11340476Y-84541223D01*
X11340476Y-84541223D02*
X11340476Y-84665033D01*
X11340476Y-84665033D02*
X11278571Y-84788842D01*
X11278571Y-84788842D02*
X11216666Y-84850747D01*
X11216666Y-84850747D02*
X11092857Y-84912652D01*
X11092857Y-84912652D02*
X10659523Y-84912652D01*
D10*
D11*
X11402380Y-135469795D02*
X11340476Y-135531700D01*
X11340476Y-135531700D02*
X11154761Y-135593604D01*
X11154761Y-135593604D02*
X11030952Y-135593604D01*
X11030952Y-135593604D02*
X10845238Y-135531700D01*
X10845238Y-135531700D02*
X10721428Y-135407890D01*
X10721428Y-135407890D02*
X10659523Y-135284080D01*
X10659523Y-135284080D02*
X10597619Y-135036461D01*
X10597619Y-135036461D02*
X10597619Y-134850747D01*
X10597619Y-134850747D02*
X10659523Y-134603128D01*
X10659523Y-134603128D02*
X10721428Y-134479319D01*
X10721428Y-134479319D02*
X10845238Y-134355509D01*
X10845238Y-134355509D02*
X11030952Y-134293604D01*
X11030952Y-134293604D02*
X11154761Y-134293604D01*
X11154761Y-134293604D02*
X11340476Y-134355509D01*
X11340476Y-134355509D02*
X11402380Y-134417414D01*
D10*
D11*
X10659523Y-185593604D02*
X10659523Y-184293604D01*
X10659523Y-184293604D02*
X10969047Y-184293604D01*
X10969047Y-184293604D02*
X11154761Y-184355509D01*
X11154761Y-184355509D02*
X11278571Y-184479319D01*
X11278571Y-184479319D02*
X11340476Y-184603128D01*
X11340476Y-184603128D02*
X11402380Y-184850747D01*
X11402380Y-184850747D02*
X11402380Y-185036461D01*
X11402380Y-185036461D02*
X11340476Y-185284080D01*
X11340476Y-185284080D02*
X11278571Y-185407890D01*
X11278571Y-185407890D02*
X11154761Y-185531700D01*
X11154761Y-185531700D02*
X10969047Y-185593604D01*
X10969047Y-185593604D02*
X10659523Y-185593604D01*
D10*
D11*
X287002200Y-60000000D02*
X285002200Y-60000000D01*
D10*
D11*
X287002200Y-110000000D02*
X285002200Y-110000000D01*
D10*
D11*
X287002200Y-160000000D02*
X285002200Y-160000000D01*
D10*
D11*
X285692676Y-35222176D02*
X286311723Y-35222176D01*
X285568866Y-35593604D02*
X286002199Y-34293604D01*
X286002199Y-34293604D02*
X286435533Y-35593604D01*
D10*
D11*
X286095057Y-84912652D02*
X286280771Y-84974557D01*
X286280771Y-84974557D02*
X286342676Y-85036461D01*
X286342676Y-85036461D02*
X286404580Y-85160271D01*
X286404580Y-85160271D02*
X286404580Y-85345985D01*
X286404580Y-85345985D02*
X286342676Y-85469795D01*
X286342676Y-85469795D02*
X286280771Y-85531700D01*
X286280771Y-85531700D02*
X286156961Y-85593604D01*
X286156961Y-85593604D02*
X285661723Y-85593604D01*
X285661723Y-85593604D02*
X285661723Y-84293604D01*
X285661723Y-84293604D02*
X286095057Y-84293604D01*
X286095057Y-84293604D02*
X286218866Y-84355509D01*
X286218866Y-84355509D02*
X286280771Y-84417414D01*
X286280771Y-84417414D02*
X286342676Y-84541223D01*
X286342676Y-84541223D02*
X286342676Y-84665033D01*
X286342676Y-84665033D02*
X286280771Y-84788842D01*
X286280771Y-84788842D02*
X286218866Y-84850747D01*
X286218866Y-84850747D02*
X286095057Y-84912652D01*
X286095057Y-84912652D02*
X285661723Y-84912652D01*
D10*
D11*
X286404580Y-135469795D02*
X286342676Y-135531700D01*
X286342676Y-135531700D02*
X286156961Y-135593604D01*
X286156961Y-135593604D02*
X286033152Y-135593604D01*
X286033152Y-135593604D02*
X285847438Y-135531700D01*
X285847438Y-135531700D02*
X285723628Y-135407890D01*
X285723628Y-135407890D02*
X285661723Y-135284080D01*
X285661723Y-135284080D02*
X285599819Y-135036461D01*
X285599819Y-135036461D02*
X285599819Y-134850747D01*
X285599819Y-134850747D02*
X285661723Y-134603128D01*
X285661723Y-134603128D02*
X285723628Y-134479319D01*
X285723628Y-134479319D02*
X285847438Y-134355509D01*
X285847438Y-134355509D02*
X286033152Y-134293604D01*
X286033152Y-134293604D02*
X286156961Y-134293604D01*
X286156961Y-134293604D02*
X286342676Y-134355509D01*
X286342676Y-134355509D02*
X286404580Y-134417414D01*
D10*
D11*
X285661723Y-185593604D02*
X285661723Y-184293604D01*
X285661723Y-184293604D02*
X285971247Y-184293604D01*
X285971247Y-184293604D02*
X286156961Y-184355509D01*
X286156961Y-184355509D02*
X286280771Y-184479319D01*
X286280771Y-184479319D02*
X286342676Y-184603128D01*
X286342676Y-184603128D02*
X286404580Y-184850747D01*
X286404580Y-184850747D02*
X286404580Y-185036461D01*
X286404580Y-185036461D02*
X286342676Y-185284080D01*
X286342676Y-185284080D02*
X286280771Y-185407890D01*
X286280771Y-185407890D02*
X286156961Y-185531700D01*
X286156961Y-185531700D02*
X285971247Y-185593604D01*
X285971247Y-185593604D02*
X285661723Y-185593604D01*
D10*
D11*
X200458026Y-193793328D02*
X200458026Y-192293328D01*
X200458026Y-192293328D02*
X200815169Y-192293328D01*
X200815169Y-192293328D02*
X201029455Y-192364757D01*
X201029455Y-192364757D02*
X201172312Y-192507614D01*
X201172312Y-192507614D02*
X201243741Y-192650471D01*
X201243741Y-192650471D02*
X201315169Y-192936185D01*
X201315169Y-192936185D02*
X201315169Y-193150471D01*
X201315169Y-193150471D02*
X201243741Y-193436185D01*
X201243741Y-193436185D02*
X201172312Y-193579042D01*
X201172312Y-193579042D02*
X201029455Y-193721900D01*
X201029455Y-193721900D02*
X200815169Y-193793328D01*
X200815169Y-193793328D02*
X200458026Y-193793328D01*
X202600884Y-193793328D02*
X202600884Y-193007614D01*
X202600884Y-193007614D02*
X202529455Y-192864757D01*
X202529455Y-192864757D02*
X202386598Y-192793328D01*
X202386598Y-192793328D02*
X202100884Y-192793328D01*
X202100884Y-192793328D02*
X201958026Y-192864757D01*
X202600884Y-193721900D02*
X202458026Y-193793328D01*
X202458026Y-193793328D02*
X202100884Y-193793328D01*
X202100884Y-193793328D02*
X201958026Y-193721900D01*
X201958026Y-193721900D02*
X201886598Y-193579042D01*
X201886598Y-193579042D02*
X201886598Y-193436185D01*
X201886598Y-193436185D02*
X201958026Y-193293328D01*
X201958026Y-193293328D02*
X202100884Y-193221900D01*
X202100884Y-193221900D02*
X202458026Y-193221900D01*
X202458026Y-193221900D02*
X202600884Y-193150471D01*
X203100884Y-192793328D02*
X203672312Y-192793328D01*
X203315169Y-192293328D02*
X203315169Y-193579042D01*
X203315169Y-193579042D02*
X203386598Y-193721900D01*
X203386598Y-193721900D02*
X203529455Y-193793328D01*
X203529455Y-193793328D02*
X203672312Y-193793328D01*
X204743741Y-193721900D02*
X204600884Y-193793328D01*
X204600884Y-193793328D02*
X204315170Y-193793328D01*
X204315170Y-193793328D02*
X204172312Y-193721900D01*
X204172312Y-193721900D02*
X204100884Y-193579042D01*
X204100884Y-193579042D02*
X204100884Y-193007614D01*
X204100884Y-193007614D02*
X204172312Y-192864757D01*
X204172312Y-192864757D02*
X204315170Y-192793328D01*
X204315170Y-192793328D02*
X204600884Y-192793328D01*
X204600884Y-192793328D02*
X204743741Y-192864757D01*
X204743741Y-192864757D02*
X204815170Y-193007614D01*
X204815170Y-193007614D02*
X204815170Y-193150471D01*
X204815170Y-193150471D02*
X204100884Y-193293328D01*
X205458026Y-193650471D02*
X205529455Y-193721900D01*
X205529455Y-193721900D02*
X205458026Y-193793328D01*
X205458026Y-193793328D02*
X205386598Y-193721900D01*
X205386598Y-193721900D02*
X205458026Y-193650471D01*
X205458026Y-193650471D02*
X205458026Y-193793328D01*
X205458026Y-192864757D02*
X205529455Y-192936185D01*
X205529455Y-192936185D02*
X205458026Y-193007614D01*
X205458026Y-193007614D02*
X205386598Y-192936185D01*
X205386598Y-192936185D02*
X205458026Y-192864757D01*
X205458026Y-192864757D02*
X205458026Y-193007614D01*
X207243741Y-192436185D02*
X207315169Y-192364757D01*
X207315169Y-192364757D02*
X207458027Y-192293328D01*
X207458027Y-192293328D02*
X207815169Y-192293328D01*
X207815169Y-192293328D02*
X207958027Y-192364757D01*
X207958027Y-192364757D02*
X208029455Y-192436185D01*
X208029455Y-192436185D02*
X208100884Y-192579042D01*
X208100884Y-192579042D02*
X208100884Y-192721900D01*
X208100884Y-192721900D02*
X208029455Y-192936185D01*
X208029455Y-192936185D02*
X207172312Y-193793328D01*
X207172312Y-193793328D02*
X208100884Y-193793328D01*
X209029455Y-192293328D02*
X209172312Y-192293328D01*
X209172312Y-192293328D02*
X209315169Y-192364757D01*
X209315169Y-192364757D02*
X209386598Y-192436185D01*
X209386598Y-192436185D02*
X209458026Y-192579042D01*
X209458026Y-192579042D02*
X209529455Y-192864757D01*
X209529455Y-192864757D02*
X209529455Y-193221900D01*
X209529455Y-193221900D02*
X209458026Y-193507614D01*
X209458026Y-193507614D02*
X209386598Y-193650471D01*
X209386598Y-193650471D02*
X209315169Y-193721900D01*
X209315169Y-193721900D02*
X209172312Y-193793328D01*
X209172312Y-193793328D02*
X209029455Y-193793328D01*
X209029455Y-193793328D02*
X208886598Y-193721900D01*
X208886598Y-193721900D02*
X208815169Y-193650471D01*
X208815169Y-193650471D02*
X208743740Y-193507614D01*
X208743740Y-193507614D02*
X208672312Y-193221900D01*
X208672312Y-193221900D02*
X208672312Y-192864757D01*
X208672312Y-192864757D02*
X208743740Y-192579042D01*
X208743740Y-192579042D02*
X208815169Y-192436185D01*
X208815169Y-192436185D02*
X208886598Y-192364757D01*
X208886598Y-192364757D02*
X209029455Y-192293328D01*
X210100883Y-192436185D02*
X210172311Y-192364757D01*
X210172311Y-192364757D02*
X210315169Y-192293328D01*
X210315169Y-192293328D02*
X210672311Y-192293328D01*
X210672311Y-192293328D02*
X210815169Y-192364757D01*
X210815169Y-192364757D02*
X210886597Y-192436185D01*
X210886597Y-192436185D02*
X210958026Y-192579042D01*
X210958026Y-192579042D02*
X210958026Y-192721900D01*
X210958026Y-192721900D02*
X210886597Y-192936185D01*
X210886597Y-192936185D02*
X210029454Y-193793328D01*
X210029454Y-193793328D02*
X210958026Y-193793328D01*
X212315168Y-192293328D02*
X211600882Y-192293328D01*
X211600882Y-192293328D02*
X211529454Y-193007614D01*
X211529454Y-193007614D02*
X211600882Y-192936185D01*
X211600882Y-192936185D02*
X211743740Y-192864757D01*
X211743740Y-192864757D02*
X212100882Y-192864757D01*
X212100882Y-192864757D02*
X212243740Y-192936185D01*
X212243740Y-192936185D02*
X212315168Y-193007614D01*
X212315168Y-193007614D02*
X212386597Y-193150471D01*
X212386597Y-193150471D02*
X212386597Y-193507614D01*
X212386597Y-193507614D02*
X212315168Y-193650471D01*
X212315168Y-193650471D02*
X212243740Y-193721900D01*
X212243740Y-193721900D02*
X212100882Y-193793328D01*
X212100882Y-193793328D02*
X211743740Y-193793328D01*
X211743740Y-193793328D02*
X211600882Y-193721900D01*
X211600882Y-193721900D02*
X211529454Y-193650471D01*
X213029453Y-193221900D02*
X214172311Y-193221900D01*
X215172311Y-192293328D02*
X215315168Y-192293328D01*
X215315168Y-192293328D02*
X215458025Y-192364757D01*
X215458025Y-192364757D02*
X215529454Y-192436185D01*
X215529454Y-192436185D02*
X215600882Y-192579042D01*
X215600882Y-192579042D02*
X215672311Y-192864757D01*
X215672311Y-192864757D02*
X215672311Y-193221900D01*
X215672311Y-193221900D02*
X215600882Y-193507614D01*
X215600882Y-193507614D02*
X215529454Y-193650471D01*
X215529454Y-193650471D02*
X215458025Y-193721900D01*
X215458025Y-193721900D02*
X215315168Y-193793328D01*
X215315168Y-193793328D02*
X215172311Y-193793328D01*
X215172311Y-193793328D02*
X215029454Y-193721900D01*
X215029454Y-193721900D02*
X214958025Y-193650471D01*
X214958025Y-193650471D02*
X214886596Y-193507614D01*
X214886596Y-193507614D02*
X214815168Y-193221900D01*
X214815168Y-193221900D02*
X214815168Y-192864757D01*
X214815168Y-192864757D02*
X214886596Y-192579042D01*
X214886596Y-192579042D02*
X214958025Y-192436185D01*
X214958025Y-192436185D02*
X215029454Y-192364757D01*
X215029454Y-192364757D02*
X215172311Y-192293328D01*
X216958025Y-192793328D02*
X216958025Y-193793328D01*
X216600882Y-192221900D02*
X216243739Y-193293328D01*
X216243739Y-193293328D02*
X217172310Y-193293328D01*
X217743738Y-193221900D02*
X218886596Y-193221900D01*
X219886596Y-192293328D02*
X220029453Y-192293328D01*
X220029453Y-192293328D02*
X220172310Y-192364757D01*
X220172310Y-192364757D02*
X220243739Y-192436185D01*
X220243739Y-192436185D02*
X220315167Y-192579042D01*
X220315167Y-192579042D02*
X220386596Y-192864757D01*
X220386596Y-192864757D02*
X220386596Y-193221900D01*
X220386596Y-193221900D02*
X220315167Y-193507614D01*
X220315167Y-193507614D02*
X220243739Y-193650471D01*
X220243739Y-193650471D02*
X220172310Y-193721900D01*
X220172310Y-193721900D02*
X220029453Y-193793328D01*
X220029453Y-193793328D02*
X219886596Y-193793328D01*
X219886596Y-193793328D02*
X219743739Y-193721900D01*
X219743739Y-193721900D02*
X219672310Y-193650471D01*
X219672310Y-193650471D02*
X219600881Y-193507614D01*
X219600881Y-193507614D02*
X219529453Y-193221900D01*
X219529453Y-193221900D02*
X219529453Y-192864757D01*
X219529453Y-192864757D02*
X219600881Y-192579042D01*
X219600881Y-192579042D02*
X219672310Y-192436185D01*
X219672310Y-192436185D02*
X219743739Y-192364757D01*
X219743739Y-192364757D02*
X219886596Y-192293328D01*
X221815167Y-193793328D02*
X220958024Y-193793328D01*
X221386595Y-193793328D02*
X221386595Y-192293328D01*
X221386595Y-192293328D02*
X221243738Y-192507614D01*
X221243738Y-192507614D02*
X221100881Y-192650471D01*
X221100881Y-192650471D02*
X220958024Y-192721900D01*
D10*
D11*
X177002200Y-194507200D02*
X285002200Y-194507200D01*
D10*
D11*
X178458026Y-196593328D02*
X178458026Y-195093328D01*
X179315169Y-196593328D02*
X178672312Y-195736185D01*
X179315169Y-195093328D02*
X178458026Y-195950471D01*
X179958026Y-196593328D02*
X179958026Y-195593328D01*
X179958026Y-195093328D02*
X179886598Y-195164757D01*
X179886598Y-195164757D02*
X179958026Y-195236185D01*
X179958026Y-195236185D02*
X180029455Y-195164757D01*
X180029455Y-195164757D02*
X179958026Y-195093328D01*
X179958026Y-195093328D02*
X179958026Y-195236185D01*
X181529455Y-196450471D02*
X181458027Y-196521900D01*
X181458027Y-196521900D02*
X181243741Y-196593328D01*
X181243741Y-196593328D02*
X181100884Y-196593328D01*
X181100884Y-196593328D02*
X180886598Y-196521900D01*
X180886598Y-196521900D02*
X180743741Y-196379042D01*
X180743741Y-196379042D02*
X180672312Y-196236185D01*
X180672312Y-196236185D02*
X180600884Y-195950471D01*
X180600884Y-195950471D02*
X180600884Y-195736185D01*
X180600884Y-195736185D02*
X180672312Y-195450471D01*
X180672312Y-195450471D02*
X180743741Y-195307614D01*
X180743741Y-195307614D02*
X180886598Y-195164757D01*
X180886598Y-195164757D02*
X181100884Y-195093328D01*
X181100884Y-195093328D02*
X181243741Y-195093328D01*
X181243741Y-195093328D02*
X181458027Y-195164757D01*
X181458027Y-195164757D02*
X181529455Y-195236185D01*
X182815170Y-196593328D02*
X182815170Y-195807614D01*
X182815170Y-195807614D02*
X182743741Y-195664757D01*
X182743741Y-195664757D02*
X182600884Y-195593328D01*
X182600884Y-195593328D02*
X182315170Y-195593328D01*
X182315170Y-195593328D02*
X182172312Y-195664757D01*
X182815170Y-196521900D02*
X182672312Y-196593328D01*
X182672312Y-196593328D02*
X182315170Y-196593328D01*
X182315170Y-196593328D02*
X182172312Y-196521900D01*
X182172312Y-196521900D02*
X182100884Y-196379042D01*
X182100884Y-196379042D02*
X182100884Y-196236185D01*
X182100884Y-196236185D02*
X182172312Y-196093328D01*
X182172312Y-196093328D02*
X182315170Y-196021900D01*
X182315170Y-196021900D02*
X182672312Y-196021900D01*
X182672312Y-196021900D02*
X182815170Y-195950471D01*
X184172313Y-196593328D02*
X184172313Y-195093328D01*
X184172313Y-196521900D02*
X184029455Y-196593328D01*
X184029455Y-196593328D02*
X183743741Y-196593328D01*
X183743741Y-196593328D02*
X183600884Y-196521900D01*
X183600884Y-196521900D02*
X183529455Y-196450471D01*
X183529455Y-196450471D02*
X183458027Y-196307614D01*
X183458027Y-196307614D02*
X183458027Y-195879042D01*
X183458027Y-195879042D02*
X183529455Y-195736185D01*
X183529455Y-195736185D02*
X183600884Y-195664757D01*
X183600884Y-195664757D02*
X183743741Y-195593328D01*
X183743741Y-195593328D02*
X184029455Y-195593328D01*
X184029455Y-195593328D02*
X184172313Y-195664757D01*
X186029455Y-195807614D02*
X186529455Y-195807614D01*
X186743741Y-196593328D02*
X186029455Y-196593328D01*
X186029455Y-196593328D02*
X186029455Y-195093328D01*
X186029455Y-195093328D02*
X186743741Y-195093328D01*
X187386598Y-196450471D02*
X187458027Y-196521900D01*
X187458027Y-196521900D02*
X187386598Y-196593328D01*
X187386598Y-196593328D02*
X187315170Y-196521900D01*
X187315170Y-196521900D02*
X187386598Y-196450471D01*
X187386598Y-196450471D02*
X187386598Y-196593328D01*
X188100884Y-196593328D02*
X188100884Y-195093328D01*
X188100884Y-195093328D02*
X188458027Y-195093328D01*
X188458027Y-195093328D02*
X188672313Y-195164757D01*
X188672313Y-195164757D02*
X188815170Y-195307614D01*
X188815170Y-195307614D02*
X188886599Y-195450471D01*
X188886599Y-195450471D02*
X188958027Y-195736185D01*
X188958027Y-195736185D02*
X188958027Y-195950471D01*
X188958027Y-195950471D02*
X188886599Y-196236185D01*
X188886599Y-196236185D02*
X188815170Y-196379042D01*
X188815170Y-196379042D02*
X188672313Y-196521900D01*
X188672313Y-196521900D02*
X188458027Y-196593328D01*
X188458027Y-196593328D02*
X188100884Y-196593328D01*
X189600884Y-196450471D02*
X189672313Y-196521900D01*
X189672313Y-196521900D02*
X189600884Y-196593328D01*
X189600884Y-196593328D02*
X189529456Y-196521900D01*
X189529456Y-196521900D02*
X189600884Y-196450471D01*
X189600884Y-196450471D02*
X189600884Y-196593328D01*
X190243742Y-196164757D02*
X190958028Y-196164757D01*
X190100885Y-196593328D02*
X190600885Y-195093328D01*
X190600885Y-195093328D02*
X191100885Y-196593328D01*
X191600884Y-196450471D02*
X191672313Y-196521900D01*
X191672313Y-196521900D02*
X191600884Y-196593328D01*
X191600884Y-196593328D02*
X191529456Y-196521900D01*
X191529456Y-196521900D02*
X191600884Y-196450471D01*
X191600884Y-196450471D02*
X191600884Y-196593328D01*
X193529456Y-196593328D02*
X193815170Y-196593328D01*
X193815170Y-196593328D02*
X193958027Y-196521900D01*
X193958027Y-196521900D02*
X194029456Y-196450471D01*
X194029456Y-196450471D02*
X194172313Y-196236185D01*
X194172313Y-196236185D02*
X194243742Y-195950471D01*
X194243742Y-195950471D02*
X194243742Y-195379042D01*
X194243742Y-195379042D02*
X194172313Y-195236185D01*
X194172313Y-195236185D02*
X194100885Y-195164757D01*
X194100885Y-195164757D02*
X193958027Y-195093328D01*
X193958027Y-195093328D02*
X193672313Y-195093328D01*
X193672313Y-195093328D02*
X193529456Y-195164757D01*
X193529456Y-195164757D02*
X193458027Y-195236185D01*
X193458027Y-195236185D02*
X193386599Y-195379042D01*
X193386599Y-195379042D02*
X193386599Y-195736185D01*
X193386599Y-195736185D02*
X193458027Y-195879042D01*
X193458027Y-195879042D02*
X193529456Y-195950471D01*
X193529456Y-195950471D02*
X193672313Y-196021900D01*
X193672313Y-196021900D02*
X193958027Y-196021900D01*
X193958027Y-196021900D02*
X194100885Y-195950471D01*
X194100885Y-195950471D02*
X194172313Y-195879042D01*
X194172313Y-195879042D02*
X194243742Y-195736185D01*
X194886598Y-196450471D02*
X194958027Y-196521900D01*
X194958027Y-196521900D02*
X194886598Y-196593328D01*
X194886598Y-196593328D02*
X194815170Y-196521900D01*
X194815170Y-196521900D02*
X194886598Y-196450471D01*
X194886598Y-196450471D02*
X194886598Y-196593328D01*
X195886599Y-195093328D02*
X196029456Y-195093328D01*
X196029456Y-195093328D02*
X196172313Y-195164757D01*
X196172313Y-195164757D02*
X196243742Y-195236185D01*
X196243742Y-195236185D02*
X196315170Y-195379042D01*
X196315170Y-195379042D02*
X196386599Y-195664757D01*
X196386599Y-195664757D02*
X196386599Y-196021900D01*
X196386599Y-196021900D02*
X196315170Y-196307614D01*
X196315170Y-196307614D02*
X196243742Y-196450471D01*
X196243742Y-196450471D02*
X196172313Y-196521900D01*
X196172313Y-196521900D02*
X196029456Y-196593328D01*
X196029456Y-196593328D02*
X195886599Y-196593328D01*
X195886599Y-196593328D02*
X195743742Y-196521900D01*
X195743742Y-196521900D02*
X195672313Y-196450471D01*
X195672313Y-196450471D02*
X195600884Y-196307614D01*
X195600884Y-196307614D02*
X195529456Y-196021900D01*
X195529456Y-196021900D02*
X195529456Y-195664757D01*
X195529456Y-195664757D02*
X195600884Y-195379042D01*
X195600884Y-195379042D02*
X195672313Y-195236185D01*
X195672313Y-195236185D02*
X195743742Y-195164757D01*
X195743742Y-195164757D02*
X195886599Y-195093328D01*
X197029455Y-196450471D02*
X197100884Y-196521900D01*
X197100884Y-196521900D02*
X197029455Y-196593328D01*
X197029455Y-196593328D02*
X196958027Y-196521900D01*
X196958027Y-196521900D02*
X197029455Y-196450471D01*
X197029455Y-196450471D02*
X197029455Y-196593328D01*
X198529456Y-196593328D02*
X197672313Y-196593328D01*
X198100884Y-196593328D02*
X198100884Y-195093328D01*
X198100884Y-195093328D02*
X197958027Y-195307614D01*
X197958027Y-195307614D02*
X197815170Y-195450471D01*
X197815170Y-195450471D02*
X197672313Y-195521900D01*
D10*
D11*
X177002200Y-191507200D02*
X285002200Y-191507200D01*
D10*
D12*
X264413853Y-193785528D02*
X263913853Y-193071242D01*
X263556710Y-193785528D02*
X263556710Y-192285528D01*
X263556710Y-192285528D02*
X264128139Y-192285528D01*
X264128139Y-192285528D02*
X264270996Y-192356957D01*
X264270996Y-192356957D02*
X264342425Y-192428385D01*
X264342425Y-192428385D02*
X264413853Y-192571242D01*
X264413853Y-192571242D02*
X264413853Y-192785528D01*
X264413853Y-192785528D02*
X264342425Y-192928385D01*
X264342425Y-192928385D02*
X264270996Y-192999814D01*
X264270996Y-192999814D02*
X264128139Y-193071242D01*
X264128139Y-193071242D02*
X263556710Y-193071242D01*
X265628139Y-193714100D02*
X265485282Y-193785528D01*
X265485282Y-193785528D02*
X265199568Y-193785528D01*
X265199568Y-193785528D02*
X265056710Y-193714100D01*
X265056710Y-193714100D02*
X264985282Y-193571242D01*
X264985282Y-193571242D02*
X264985282Y-192999814D01*
X264985282Y-192999814D02*
X265056710Y-192856957D01*
X265056710Y-192856957D02*
X265199568Y-192785528D01*
X265199568Y-192785528D02*
X265485282Y-192785528D01*
X265485282Y-192785528D02*
X265628139Y-192856957D01*
X265628139Y-192856957D02*
X265699568Y-192999814D01*
X265699568Y-192999814D02*
X265699568Y-193142671D01*
X265699568Y-193142671D02*
X264985282Y-193285528D01*
X266199567Y-192785528D02*
X266556710Y-193785528D01*
X266556710Y-193785528D02*
X266913853Y-192785528D01*
X267485281Y-193642671D02*
X267556710Y-193714100D01*
X267556710Y-193714100D02*
X267485281Y-193785528D01*
X267485281Y-193785528D02*
X267413853Y-193714100D01*
X267413853Y-193714100D02*
X267485281Y-193642671D01*
X267485281Y-193642671D02*
X267485281Y-193785528D01*
X267485281Y-192856957D02*
X267556710Y-192928385D01*
X267556710Y-192928385D02*
X267485281Y-192999814D01*
X267485281Y-192999814D02*
X267413853Y-192928385D01*
X267413853Y-192928385D02*
X267485281Y-192856957D01*
X267485281Y-192856957D02*
X267485281Y-192999814D01*
X270128139Y-193785528D02*
X269270996Y-193785528D01*
X269699567Y-193785528D02*
X269699567Y-192285528D01*
X269699567Y-192285528D02*
X269556710Y-192499814D01*
X269556710Y-192499814D02*
X269413853Y-192642671D01*
X269413853Y-192642671D02*
X269270996Y-192714100D01*
X270770995Y-193642671D02*
X270842424Y-193714100D01*
X270842424Y-193714100D02*
X270770995Y-193785528D01*
X270770995Y-193785528D02*
X270699567Y-193714100D01*
X270699567Y-193714100D02*
X270770995Y-193642671D01*
X270770995Y-193642671D02*
X270770995Y-193785528D01*
X271770996Y-192285528D02*
X271913853Y-192285528D01*
X271913853Y-192285528D02*
X272056710Y-192356957D01*
X272056710Y-192356957D02*
X272128139Y-192428385D01*
X272128139Y-192428385D02*
X272199567Y-192571242D01*
X272199567Y-192571242D02*
X272270996Y-192856957D01*
X272270996Y-192856957D02*
X272270996Y-193214100D01*
X272270996Y-193214100D02*
X272199567Y-193499814D01*
X272199567Y-193499814D02*
X272128139Y-193642671D01*
X272128139Y-193642671D02*
X272056710Y-193714100D01*
X272056710Y-193714100D02*
X271913853Y-193785528D01*
X271913853Y-193785528D02*
X271770996Y-193785528D01*
X271770996Y-193785528D02*
X271628139Y-193714100D01*
X271628139Y-193714100D02*
X271556710Y-193642671D01*
X271556710Y-193642671D02*
X271485281Y-193499814D01*
X271485281Y-193499814D02*
X271413853Y-193214100D01*
X271413853Y-193214100D02*
X271413853Y-192856957D01*
X271413853Y-192856957D02*
X271485281Y-192571242D01*
X271485281Y-192571242D02*
X271556710Y-192428385D01*
X271556710Y-192428385D02*
X271628139Y-192356957D01*
X271628139Y-192356957D02*
X271770996Y-192285528D01*
X272913852Y-193642671D02*
X272985281Y-193714100D01*
X272985281Y-193714100D02*
X272913852Y-193785528D01*
X272913852Y-193785528D02*
X272842424Y-193714100D01*
X272842424Y-193714100D02*
X272913852Y-193642671D01*
X272913852Y-193642671D02*
X272913852Y-193785528D01*
X273913853Y-192285528D02*
X274056710Y-192285528D01*
X274056710Y-192285528D02*
X274199567Y-192356957D01*
X274199567Y-192356957D02*
X274270996Y-192428385D01*
X274270996Y-192428385D02*
X274342424Y-192571242D01*
X274342424Y-192571242D02*
X274413853Y-192856957D01*
X274413853Y-192856957D02*
X274413853Y-193214100D01*
X274413853Y-193214100D02*
X274342424Y-193499814D01*
X274342424Y-193499814D02*
X274270996Y-193642671D01*
X274270996Y-193642671D02*
X274199567Y-193714100D01*
X274199567Y-193714100D02*
X274056710Y-193785528D01*
X274056710Y-193785528D02*
X273913853Y-193785528D01*
X273913853Y-193785528D02*
X273770996Y-193714100D01*
X273770996Y-193714100D02*
X273699567Y-193642671D01*
X273699567Y-193642671D02*
X273628138Y-193499814D01*
X273628138Y-193499814D02*
X273556710Y-193214100D01*
X273556710Y-193214100D02*
X273556710Y-192856957D01*
X273556710Y-192856957D02*
X273628138Y-192571242D01*
X273628138Y-192571242D02*
X273699567Y-192428385D01*
X273699567Y-192428385D02*
X273770996Y-192356957D01*
X273770996Y-192356957D02*
X273913853Y-192285528D01*
D10*
D11*
X178386598Y-193721900D02*
X178600884Y-193793328D01*
X178600884Y-193793328D02*
X178958026Y-193793328D01*
X178958026Y-193793328D02*
X179100884Y-193721900D01*
X179100884Y-193721900D02*
X179172312Y-193650471D01*
X179172312Y-193650471D02*
X179243741Y-193507614D01*
X179243741Y-193507614D02*
X179243741Y-193364757D01*
X179243741Y-193364757D02*
X179172312Y-193221900D01*
X179172312Y-193221900D02*
X179100884Y-193150471D01*
X179100884Y-193150471D02*
X178958026Y-193079042D01*
X178958026Y-193079042D02*
X178672312Y-193007614D01*
X178672312Y-193007614D02*
X178529455Y-192936185D01*
X178529455Y-192936185D02*
X178458026Y-192864757D01*
X178458026Y-192864757D02*
X178386598Y-192721900D01*
X178386598Y-192721900D02*
X178386598Y-192579042D01*
X178386598Y-192579042D02*
X178458026Y-192436185D01*
X178458026Y-192436185D02*
X178529455Y-192364757D01*
X178529455Y-192364757D02*
X178672312Y-192293328D01*
X178672312Y-192293328D02*
X179029455Y-192293328D01*
X179029455Y-192293328D02*
X179243741Y-192364757D01*
X179886597Y-193793328D02*
X179886597Y-192793328D01*
X179886597Y-192293328D02*
X179815169Y-192364757D01*
X179815169Y-192364757D02*
X179886597Y-192436185D01*
X179886597Y-192436185D02*
X179958026Y-192364757D01*
X179958026Y-192364757D02*
X179886597Y-192293328D01*
X179886597Y-192293328D02*
X179886597Y-192436185D01*
X180458026Y-192793328D02*
X181243741Y-192793328D01*
X181243741Y-192793328D02*
X180458026Y-193793328D01*
X180458026Y-193793328D02*
X181243741Y-193793328D01*
X182386598Y-193721900D02*
X182243741Y-193793328D01*
X182243741Y-193793328D02*
X181958027Y-193793328D01*
X181958027Y-193793328D02*
X181815169Y-193721900D01*
X181815169Y-193721900D02*
X181743741Y-193579042D01*
X181743741Y-193579042D02*
X181743741Y-193007614D01*
X181743741Y-193007614D02*
X181815169Y-192864757D01*
X181815169Y-192864757D02*
X181958027Y-192793328D01*
X181958027Y-192793328D02*
X182243741Y-192793328D01*
X182243741Y-192793328D02*
X182386598Y-192864757D01*
X182386598Y-192864757D02*
X182458027Y-193007614D01*
X182458027Y-193007614D02*
X182458027Y-193150471D01*
X182458027Y-193150471D02*
X181743741Y-193293328D01*
X183100883Y-193650471D02*
X183172312Y-193721900D01*
X183172312Y-193721900D02*
X183100883Y-193793328D01*
X183100883Y-193793328D02*
X183029455Y-193721900D01*
X183029455Y-193721900D02*
X183100883Y-193650471D01*
X183100883Y-193650471D02*
X183100883Y-193793328D01*
X183100883Y-192864757D02*
X183172312Y-192936185D01*
X183172312Y-192936185D02*
X183100883Y-193007614D01*
X183100883Y-193007614D02*
X183029455Y-192936185D01*
X183029455Y-192936185D02*
X183100883Y-192864757D01*
X183100883Y-192864757D02*
X183100883Y-193007614D01*
X184886598Y-193364757D02*
X185600884Y-193364757D01*
X184743741Y-193793328D02*
X185243741Y-192293328D01*
X185243741Y-192293328D02*
X185743741Y-193793328D01*
X186886598Y-192793328D02*
X186886598Y-193793328D01*
X186529455Y-192221900D02*
X186172312Y-193293328D01*
X186172312Y-193293328D02*
X187100883Y-193293328D01*
D10*
D11*
X263458026Y-196593328D02*
X263458026Y-195093328D01*
X264815170Y-196593328D02*
X264815170Y-195093328D01*
X264815170Y-196521900D02*
X264672312Y-196593328D01*
X264672312Y-196593328D02*
X264386598Y-196593328D01*
X264386598Y-196593328D02*
X264243741Y-196521900D01*
X264243741Y-196521900D02*
X264172312Y-196450471D01*
X264172312Y-196450471D02*
X264100884Y-196307614D01*
X264100884Y-196307614D02*
X264100884Y-195879042D01*
X264100884Y-195879042D02*
X264172312Y-195736185D01*
X264172312Y-195736185D02*
X264243741Y-195664757D01*
X264243741Y-195664757D02*
X264386598Y-195593328D01*
X264386598Y-195593328D02*
X264672312Y-195593328D01*
X264672312Y-195593328D02*
X264815170Y-195664757D01*
X265529455Y-196450471D02*
X265600884Y-196521900D01*
X265600884Y-196521900D02*
X265529455Y-196593328D01*
X265529455Y-196593328D02*
X265458027Y-196521900D01*
X265458027Y-196521900D02*
X265529455Y-196450471D01*
X265529455Y-196450471D02*
X265529455Y-196593328D01*
X265529455Y-195664757D02*
X265600884Y-195736185D01*
X265600884Y-195736185D02*
X265529455Y-195807614D01*
X265529455Y-195807614D02*
X265458027Y-195736185D01*
X265458027Y-195736185D02*
X265529455Y-195664757D01*
X265529455Y-195664757D02*
X265529455Y-195807614D01*
X267243741Y-195093328D02*
X268172313Y-195093328D01*
X268172313Y-195093328D02*
X267672313Y-195664757D01*
X267672313Y-195664757D02*
X267886598Y-195664757D01*
X267886598Y-195664757D02*
X268029456Y-195736185D01*
X268029456Y-195736185D02*
X268100884Y-195807614D01*
X268100884Y-195807614D02*
X268172313Y-195950471D01*
X268172313Y-195950471D02*
X268172313Y-196307614D01*
X268172313Y-196307614D02*
X268100884Y-196450471D01*
X268100884Y-196450471D02*
X268029456Y-196521900D01*
X268029456Y-196521900D02*
X267886598Y-196593328D01*
X267886598Y-196593328D02*
X267458027Y-196593328D01*
X267458027Y-196593328D02*
X267315170Y-196521900D01*
X267315170Y-196521900D02*
X267243741Y-196450471D01*
X269886598Y-195021900D02*
X268600884Y-196950471D01*
X271100884Y-195093328D02*
X270386598Y-195093328D01*
X270386598Y-195093328D02*
X270315170Y-195807614D01*
X270315170Y-195807614D02*
X270386598Y-195736185D01*
X270386598Y-195736185D02*
X270529456Y-195664757D01*
X270529456Y-195664757D02*
X270886598Y-195664757D01*
X270886598Y-195664757D02*
X271029456Y-195736185D01*
X271029456Y-195736185D02*
X271100884Y-195807614D01*
X271100884Y-195807614D02*
X271172313Y-195950471D01*
X271172313Y-195950471D02*
X271172313Y-196307614D01*
X271172313Y-196307614D02*
X271100884Y-196450471D01*
X271100884Y-196450471D02*
X271029456Y-196521900D01*
X271029456Y-196521900D02*
X270886598Y-196593328D01*
X270886598Y-196593328D02*
X270529456Y-196593328D01*
X270529456Y-196593328D02*
X270386598Y-196521900D01*
X270386598Y-196521900D02*
X270315170Y-196450471D01*
D10*
D11*
X177002200Y-187507200D02*
X285002200Y-187507200D01*
D10*
D13*
X178693928Y-188211638D02*
X179836785Y-188211638D01*
X179015357Y-190211638D02*
X179265357Y-188211638D01*
X180253452Y-190211638D02*
X180420119Y-188878304D01*
X180503452Y-188211638D02*
X180396309Y-188306876D01*
X180396309Y-188306876D02*
X180479643Y-188402114D01*
X180479643Y-188402114D02*
X180586786Y-188306876D01*
X180586786Y-188306876D02*
X180503452Y-188211638D01*
X180503452Y-188211638D02*
X180479643Y-188402114D01*
X181086786Y-188878304D02*
X181848690Y-188878304D01*
X181455833Y-188211638D02*
X181241548Y-189925923D01*
X181241548Y-189925923D02*
X181312976Y-190116400D01*
X181312976Y-190116400D02*
X181491548Y-190211638D01*
X181491548Y-190211638D02*
X181682024Y-190211638D01*
X182634405Y-190211638D02*
X182455833Y-190116400D01*
X182455833Y-190116400D02*
X182384405Y-189925923D01*
X182384405Y-189925923D02*
X182598690Y-188211638D01*
X184170119Y-190116400D02*
X183967738Y-190211638D01*
X183967738Y-190211638D02*
X183586785Y-190211638D01*
X183586785Y-190211638D02*
X183408214Y-190116400D01*
X183408214Y-190116400D02*
X183336785Y-189925923D01*
X183336785Y-189925923D02*
X183432024Y-189164019D01*
X183432024Y-189164019D02*
X183551071Y-188973542D01*
X183551071Y-188973542D02*
X183753452Y-188878304D01*
X183753452Y-188878304D02*
X184134404Y-188878304D01*
X184134404Y-188878304D02*
X184312976Y-188973542D01*
X184312976Y-188973542D02*
X184384404Y-189164019D01*
X184384404Y-189164019D02*
X184360595Y-189354495D01*
X184360595Y-189354495D02*
X183384404Y-189544971D01*
X185134405Y-190021161D02*
X185217738Y-190116400D01*
X185217738Y-190116400D02*
X185110595Y-190211638D01*
X185110595Y-190211638D02*
X185027262Y-190116400D01*
X185027262Y-190116400D02*
X185134405Y-190021161D01*
X185134405Y-190021161D02*
X185110595Y-190211638D01*
X185265357Y-188973542D02*
X185348690Y-189068780D01*
X185348690Y-189068780D02*
X185241548Y-189164019D01*
X185241548Y-189164019D02*
X185158214Y-189068780D01*
X185158214Y-189068780D02*
X185265357Y-188973542D01*
X185265357Y-188973542D02*
X185241548Y-189164019D01*
X187646310Y-188211638D02*
X187872501Y-190211638D01*
X187872501Y-190211638D02*
X188432024Y-188783066D01*
X188432024Y-188783066D02*
X188634405Y-190211638D01*
X188634405Y-190211638D02*
X189360596Y-188211638D01*
X189872500Y-190211638D02*
X190122500Y-188211638D01*
X190729643Y-190211638D02*
X190860595Y-189164019D01*
X190860595Y-189164019D02*
X190789167Y-188973542D01*
X190789167Y-188973542D02*
X190610595Y-188878304D01*
X190610595Y-188878304D02*
X190324881Y-188878304D01*
X190324881Y-188878304D02*
X190122500Y-188973542D01*
X190122500Y-188973542D02*
X190015357Y-189068780D01*
X192455834Y-190116400D02*
X192253453Y-190211638D01*
X192253453Y-190211638D02*
X191872500Y-190211638D01*
X191872500Y-190211638D02*
X191693929Y-190116400D01*
X191693929Y-190116400D02*
X191622500Y-189925923D01*
X191622500Y-189925923D02*
X191717739Y-189164019D01*
X191717739Y-189164019D02*
X191836786Y-188973542D01*
X191836786Y-188973542D02*
X192039167Y-188878304D01*
X192039167Y-188878304D02*
X192420119Y-188878304D01*
X192420119Y-188878304D02*
X192598691Y-188973542D01*
X192598691Y-188973542D02*
X192670119Y-189164019D01*
X192670119Y-189164019D02*
X192646310Y-189354495D01*
X192646310Y-189354495D02*
X191670119Y-189544971D01*
X194170120Y-190116400D02*
X193967739Y-190211638D01*
X193967739Y-190211638D02*
X193586786Y-190211638D01*
X193586786Y-190211638D02*
X193408215Y-190116400D01*
X193408215Y-190116400D02*
X193336786Y-189925923D01*
X193336786Y-189925923D02*
X193432025Y-189164019D01*
X193432025Y-189164019D02*
X193551072Y-188973542D01*
X193551072Y-188973542D02*
X193753453Y-188878304D01*
X193753453Y-188878304D02*
X194134405Y-188878304D01*
X194134405Y-188878304D02*
X194312977Y-188973542D01*
X194312977Y-188973542D02*
X194384405Y-189164019D01*
X194384405Y-189164019D02*
X194360596Y-189354495D01*
X194360596Y-189354495D02*
X193384405Y-189544971D01*
X195396311Y-190211638D02*
X195217739Y-190116400D01*
X195217739Y-190116400D02*
X195146311Y-189925923D01*
X195146311Y-189925923D02*
X195360596Y-188211638D01*
X196074882Y-190116400D02*
X196253453Y-190211638D01*
X196253453Y-190211638D02*
X196634406Y-190211638D01*
X196634406Y-190211638D02*
X196836787Y-190116400D01*
X196836787Y-190116400D02*
X196955834Y-189925923D01*
X196955834Y-189925923D02*
X196967739Y-189830685D01*
X196967739Y-189830685D02*
X196896310Y-189640209D01*
X196896310Y-189640209D02*
X196717739Y-189544971D01*
X196717739Y-189544971D02*
X196432025Y-189544971D01*
X196432025Y-189544971D02*
X196253453Y-189449733D01*
X196253453Y-189449733D02*
X196182025Y-189259257D01*
X196182025Y-189259257D02*
X196193930Y-189164019D01*
X196193930Y-189164019D02*
X196312977Y-188973542D01*
X196312977Y-188973542D02*
X196515358Y-188878304D01*
X196515358Y-188878304D02*
X196801072Y-188878304D01*
X196801072Y-188878304D02*
X196979644Y-188973542D01*
X199301073Y-190211638D02*
X199551073Y-188211638D01*
X199551073Y-188211638D02*
X200312978Y-188211638D01*
X200312978Y-188211638D02*
X200491549Y-188306876D01*
X200491549Y-188306876D02*
X200574883Y-188402114D01*
X200574883Y-188402114D02*
X200646311Y-188592590D01*
X200646311Y-188592590D02*
X200610597Y-188878304D01*
X200610597Y-188878304D02*
X200491549Y-189068780D01*
X200491549Y-189068780D02*
X200384407Y-189164019D01*
X200384407Y-189164019D02*
X200182026Y-189259257D01*
X200182026Y-189259257D02*
X199420121Y-189259257D01*
X202467740Y-190021161D02*
X202360597Y-190116400D01*
X202360597Y-190116400D02*
X202062978Y-190211638D01*
X202062978Y-190211638D02*
X201872502Y-190211638D01*
X201872502Y-190211638D02*
X201598692Y-190116400D01*
X201598692Y-190116400D02*
X201432026Y-189925923D01*
X201432026Y-189925923D02*
X201360597Y-189735447D01*
X201360597Y-189735447D02*
X201312978Y-189354495D01*
X201312978Y-189354495D02*
X201348692Y-189068780D01*
X201348692Y-189068780D02*
X201491549Y-188687828D01*
X201491549Y-188687828D02*
X201610597Y-188497352D01*
X201610597Y-188497352D02*
X201824883Y-188306876D01*
X201824883Y-188306876D02*
X202122502Y-188211638D01*
X202122502Y-188211638D02*
X202312978Y-188211638D01*
X202312978Y-188211638D02*
X202586788Y-188306876D01*
X202586788Y-188306876D02*
X202670121Y-188402114D01*
X204098692Y-189164019D02*
X204372502Y-189259257D01*
X204372502Y-189259257D02*
X204455835Y-189354495D01*
X204455835Y-189354495D02*
X204527264Y-189544971D01*
X204527264Y-189544971D02*
X204491549Y-189830685D01*
X204491549Y-189830685D02*
X204372502Y-190021161D01*
X204372502Y-190021161D02*
X204265359Y-190116400D01*
X204265359Y-190116400D02*
X204062978Y-190211638D01*
X204062978Y-190211638D02*
X203301073Y-190211638D01*
X203301073Y-190211638D02*
X203551073Y-188211638D01*
X203551073Y-188211638D02*
X204217740Y-188211638D01*
X204217740Y-188211638D02*
X204396311Y-188306876D01*
X204396311Y-188306876D02*
X204479645Y-188402114D01*
X204479645Y-188402114D02*
X204551073Y-188592590D01*
X204551073Y-188592590D02*
X204527264Y-188783066D01*
X204527264Y-188783066D02*
X204408216Y-188973542D01*
X204408216Y-188973542D02*
X204301073Y-189068780D01*
X204301073Y-189068780D02*
X204098692Y-189164019D01*
X204098692Y-189164019D02*
X203432026Y-189164019D01*
D10*
D11*
X178958026Y-185607614D02*
X178458026Y-185607614D01*
X178458026Y-186393328D02*
X178458026Y-184893328D01*
X178458026Y-184893328D02*
X179172312Y-184893328D01*
X179743740Y-186393328D02*
X179743740Y-185393328D01*
X179743740Y-184893328D02*
X179672312Y-184964757D01*
X179672312Y-184964757D02*
X179743740Y-185036185D01*
X179743740Y-185036185D02*
X179815169Y-184964757D01*
X179815169Y-184964757D02*
X179743740Y-184893328D01*
X179743740Y-184893328D02*
X179743740Y-185036185D01*
X180672312Y-186393328D02*
X180529455Y-186321900D01*
X180529455Y-186321900D02*
X180458026Y-186179042D01*
X180458026Y-186179042D02*
X180458026Y-184893328D01*
X181815169Y-186321900D02*
X181672312Y-186393328D01*
X181672312Y-186393328D02*
X181386598Y-186393328D01*
X181386598Y-186393328D02*
X181243740Y-186321900D01*
X181243740Y-186321900D02*
X181172312Y-186179042D01*
X181172312Y-186179042D02*
X181172312Y-185607614D01*
X181172312Y-185607614D02*
X181243740Y-185464757D01*
X181243740Y-185464757D02*
X181386598Y-185393328D01*
X181386598Y-185393328D02*
X181672312Y-185393328D01*
X181672312Y-185393328D02*
X181815169Y-185464757D01*
X181815169Y-185464757D02*
X181886598Y-185607614D01*
X181886598Y-185607614D02*
X181886598Y-185750471D01*
X181886598Y-185750471D02*
X181172312Y-185893328D01*
X182529454Y-186250471D02*
X182600883Y-186321900D01*
X182600883Y-186321900D02*
X182529454Y-186393328D01*
X182529454Y-186393328D02*
X182458026Y-186321900D01*
X182458026Y-186321900D02*
X182529454Y-186250471D01*
X182529454Y-186250471D02*
X182529454Y-186393328D01*
X182529454Y-185464757D02*
X182600883Y-185536185D01*
X182600883Y-185536185D02*
X182529454Y-185607614D01*
X182529454Y-185607614D02*
X182458026Y-185536185D01*
X182458026Y-185536185D02*
X182529454Y-185464757D01*
X182529454Y-185464757D02*
X182529454Y-185607614D01*
X184243740Y-185393328D02*
X184529455Y-186393328D01*
X184529455Y-186393328D02*
X184815169Y-185679042D01*
X184815169Y-185679042D02*
X185100883Y-186393328D01*
X185100883Y-186393328D02*
X185386597Y-185393328D01*
X185958026Y-186393328D02*
X185958026Y-184893328D01*
X186600884Y-186393328D02*
X186600884Y-185607614D01*
X186600884Y-185607614D02*
X186529455Y-185464757D01*
X186529455Y-185464757D02*
X186386598Y-185393328D01*
X186386598Y-185393328D02*
X186172312Y-185393328D01*
X186172312Y-185393328D02*
X186029455Y-185464757D01*
X186029455Y-185464757D02*
X185958026Y-185536185D01*
X187886598Y-186321900D02*
X187743741Y-186393328D01*
X187743741Y-186393328D02*
X187458027Y-186393328D01*
X187458027Y-186393328D02*
X187315169Y-186321900D01*
X187315169Y-186321900D02*
X187243741Y-186179042D01*
X187243741Y-186179042D02*
X187243741Y-185607614D01*
X187243741Y-185607614D02*
X187315169Y-185464757D01*
X187315169Y-185464757D02*
X187458027Y-185393328D01*
X187458027Y-185393328D02*
X187743741Y-185393328D01*
X187743741Y-185393328D02*
X187886598Y-185464757D01*
X187886598Y-185464757D02*
X187958027Y-185607614D01*
X187958027Y-185607614D02*
X187958027Y-185750471D01*
X187958027Y-185750471D02*
X187243741Y-185893328D01*
X189172312Y-186321900D02*
X189029455Y-186393328D01*
X189029455Y-186393328D02*
X188743741Y-186393328D01*
X188743741Y-186393328D02*
X188600883Y-186321900D01*
X188600883Y-186321900D02*
X188529455Y-186179042D01*
X188529455Y-186179042D02*
X188529455Y-185607614D01*
X188529455Y-185607614D02*
X188600883Y-185464757D01*
X188600883Y-185464757D02*
X188743741Y-185393328D01*
X188743741Y-185393328D02*
X189029455Y-185393328D01*
X189029455Y-185393328D02*
X189172312Y-185464757D01*
X189172312Y-185464757D02*
X189243741Y-185607614D01*
X189243741Y-185607614D02*
X189243741Y-185750471D01*
X189243741Y-185750471D02*
X188529455Y-185893328D01*
X190100883Y-186393328D02*
X189958026Y-186321900D01*
X189958026Y-186321900D02*
X189886597Y-186179042D01*
X189886597Y-186179042D02*
X189886597Y-184893328D01*
X190600883Y-186321900D02*
X190743740Y-186393328D01*
X190743740Y-186393328D02*
X191029454Y-186393328D01*
X191029454Y-186393328D02*
X191172311Y-186321900D01*
X191172311Y-186321900D02*
X191243740Y-186179042D01*
X191243740Y-186179042D02*
X191243740Y-186107614D01*
X191243740Y-186107614D02*
X191172311Y-185964757D01*
X191172311Y-185964757D02*
X191029454Y-185893328D01*
X191029454Y-185893328D02*
X190815169Y-185893328D01*
X190815169Y-185893328D02*
X190672311Y-185821900D01*
X190672311Y-185821900D02*
X190600883Y-185679042D01*
X190600883Y-185679042D02*
X190600883Y-185607614D01*
X190600883Y-185607614D02*
X190672311Y-185464757D01*
X190672311Y-185464757D02*
X190815169Y-185393328D01*
X190815169Y-185393328D02*
X191029454Y-185393328D01*
X191029454Y-185393328D02*
X191172311Y-185464757D01*
X191886597Y-185821900D02*
X193029455Y-185821900D01*
X193743740Y-185393328D02*
X193743740Y-186893328D01*
X193743740Y-185464757D02*
X193886598Y-185393328D01*
X193886598Y-185393328D02*
X194172312Y-185393328D01*
X194172312Y-185393328D02*
X194315169Y-185464757D01*
X194315169Y-185464757D02*
X194386598Y-185536185D01*
X194386598Y-185536185D02*
X194458026Y-185679042D01*
X194458026Y-185679042D02*
X194458026Y-186107614D01*
X194458026Y-186107614D02*
X194386598Y-186250471D01*
X194386598Y-186250471D02*
X194315169Y-186321900D01*
X194315169Y-186321900D02*
X194172312Y-186393328D01*
X194172312Y-186393328D02*
X193886598Y-186393328D01*
X193886598Y-186393328D02*
X193743740Y-186321900D01*
X195743741Y-186321900D02*
X195600883Y-186393328D01*
X195600883Y-186393328D02*
X195315169Y-186393328D01*
X195315169Y-186393328D02*
X195172312Y-186321900D01*
X195172312Y-186321900D02*
X195100883Y-186250471D01*
X195100883Y-186250471D02*
X195029455Y-186107614D01*
X195029455Y-186107614D02*
X195029455Y-185679042D01*
X195029455Y-185679042D02*
X195100883Y-185536185D01*
X195100883Y-185536185D02*
X195172312Y-185464757D01*
X195172312Y-185464757D02*
X195315169Y-185393328D01*
X195315169Y-185393328D02*
X195600883Y-185393328D01*
X195600883Y-185393328D02*
X195743741Y-185464757D01*
X196386597Y-186393328D02*
X196386597Y-184893328D01*
X196386597Y-185464757D02*
X196529455Y-185393328D01*
X196529455Y-185393328D02*
X196815169Y-185393328D01*
X196815169Y-185393328D02*
X196958026Y-185464757D01*
X196958026Y-185464757D02*
X197029455Y-185536185D01*
X197029455Y-185536185D02*
X197100883Y-185679042D01*
X197100883Y-185679042D02*
X197100883Y-186107614D01*
X197100883Y-186107614D02*
X197029455Y-186250471D01*
X197029455Y-186250471D02*
X196958026Y-186321900D01*
X196958026Y-186321900D02*
X196815169Y-186393328D01*
X196815169Y-186393328D02*
X196529455Y-186393328D01*
X196529455Y-186393328D02*
X196386597Y-186321900D01*
X197743740Y-186250471D02*
X197815169Y-186321900D01*
X197815169Y-186321900D02*
X197743740Y-186393328D01*
X197743740Y-186393328D02*
X197672312Y-186321900D01*
X197672312Y-186321900D02*
X197743740Y-186250471D01*
X197743740Y-186250471D02*
X197743740Y-186393328D01*
X198458026Y-186393328D02*
X198458026Y-184893328D01*
X198600884Y-185821900D02*
X199029455Y-186393328D01*
X199029455Y-185393328D02*
X198458026Y-185964757D01*
X199672312Y-186393328D02*
X199672312Y-185393328D01*
X199672312Y-184893328D02*
X199600884Y-184964757D01*
X199600884Y-184964757D02*
X199672312Y-185036185D01*
X199672312Y-185036185D02*
X199743741Y-184964757D01*
X199743741Y-184964757D02*
X199672312Y-184893328D01*
X199672312Y-184893328D02*
X199672312Y-185036185D01*
X201029456Y-186321900D02*
X200886598Y-186393328D01*
X200886598Y-186393328D02*
X200600884Y-186393328D01*
X200600884Y-186393328D02*
X200458027Y-186321900D01*
X200458027Y-186321900D02*
X200386598Y-186250471D01*
X200386598Y-186250471D02*
X200315170Y-186107614D01*
X200315170Y-186107614D02*
X200315170Y-185679042D01*
X200315170Y-185679042D02*
X200386598Y-185536185D01*
X200386598Y-185536185D02*
X200458027Y-185464757D01*
X200458027Y-185464757D02*
X200600884Y-185393328D01*
X200600884Y-185393328D02*
X200886598Y-185393328D01*
X200886598Y-185393328D02*
X201029456Y-185464757D01*
X202315170Y-186393328D02*
X202315170Y-185607614D01*
X202315170Y-185607614D02*
X202243741Y-185464757D01*
X202243741Y-185464757D02*
X202100884Y-185393328D01*
X202100884Y-185393328D02*
X201815170Y-185393328D01*
X201815170Y-185393328D02*
X201672312Y-185464757D01*
X202315170Y-186321900D02*
X202172312Y-186393328D01*
X202172312Y-186393328D02*
X201815170Y-186393328D01*
X201815170Y-186393328D02*
X201672312Y-186321900D01*
X201672312Y-186321900D02*
X201600884Y-186179042D01*
X201600884Y-186179042D02*
X201600884Y-186036185D01*
X201600884Y-186036185D02*
X201672312Y-185893328D01*
X201672312Y-185893328D02*
X201815170Y-185821900D01*
X201815170Y-185821900D02*
X202172312Y-185821900D01*
X202172312Y-185821900D02*
X202315170Y-185750471D01*
X203672313Y-186393328D02*
X203672313Y-184893328D01*
X203672313Y-186321900D02*
X203529455Y-186393328D01*
X203529455Y-186393328D02*
X203243741Y-186393328D01*
X203243741Y-186393328D02*
X203100884Y-186321900D01*
X203100884Y-186321900D02*
X203029455Y-186250471D01*
X203029455Y-186250471D02*
X202958027Y-186107614D01*
X202958027Y-186107614D02*
X202958027Y-185679042D01*
X202958027Y-185679042D02*
X203029455Y-185536185D01*
X203029455Y-185536185D02*
X203100884Y-185464757D01*
X203100884Y-185464757D02*
X203243741Y-185393328D01*
X203243741Y-185393328D02*
X203529455Y-185393328D01*
X203529455Y-185393328D02*
X203672313Y-185464757D01*
X204029456Y-186536185D02*
X205172313Y-186536185D01*
X205529455Y-185393328D02*
X205529455Y-186893328D01*
X205529455Y-185464757D02*
X205672313Y-185393328D01*
X205672313Y-185393328D02*
X205958027Y-185393328D01*
X205958027Y-185393328D02*
X206100884Y-185464757D01*
X206100884Y-185464757D02*
X206172313Y-185536185D01*
X206172313Y-185536185D02*
X206243741Y-185679042D01*
X206243741Y-185679042D02*
X206243741Y-186107614D01*
X206243741Y-186107614D02*
X206172313Y-186250471D01*
X206172313Y-186250471D02*
X206100884Y-186321900D01*
X206100884Y-186321900D02*
X205958027Y-186393328D01*
X205958027Y-186393328D02*
X205672313Y-186393328D01*
X205672313Y-186393328D02*
X205529455Y-186321900D01*
X207529456Y-186321900D02*
X207386598Y-186393328D01*
X207386598Y-186393328D02*
X207100884Y-186393328D01*
X207100884Y-186393328D02*
X206958027Y-186321900D01*
X206958027Y-186321900D02*
X206886598Y-186250471D01*
X206886598Y-186250471D02*
X206815170Y-186107614D01*
X206815170Y-186107614D02*
X206815170Y-185679042D01*
X206815170Y-185679042D02*
X206886598Y-185536185D01*
X206886598Y-185536185D02*
X206958027Y-185464757D01*
X206958027Y-185464757D02*
X207100884Y-185393328D01*
X207100884Y-185393328D02*
X207386598Y-185393328D01*
X207386598Y-185393328D02*
X207529456Y-185464757D01*
X208172312Y-186393328D02*
X208172312Y-184893328D01*
X208172312Y-185464757D02*
X208315170Y-185393328D01*
X208315170Y-185393328D02*
X208600884Y-185393328D01*
X208600884Y-185393328D02*
X208743741Y-185464757D01*
X208743741Y-185464757D02*
X208815170Y-185536185D01*
X208815170Y-185536185D02*
X208886598Y-185679042D01*
X208886598Y-185679042D02*
X208886598Y-186107614D01*
X208886598Y-186107614D02*
X208815170Y-186250471D01*
X208815170Y-186250471D02*
X208743741Y-186321900D01*
X208743741Y-186321900D02*
X208600884Y-186393328D01*
X208600884Y-186393328D02*
X208315170Y-186393328D01*
X208315170Y-186393328D02*
X208172312Y-186321900D01*
D10*
D11*
X177002200Y-181507200D02*
X285002200Y-181507200D01*
D10*
D11*
X178386598Y-183621900D02*
X178600884Y-183693328D01*
X178600884Y-183693328D02*
X178958026Y-183693328D01*
X178958026Y-183693328D02*
X179100884Y-183621900D01*
X179100884Y-183621900D02*
X179172312Y-183550471D01*
X179172312Y-183550471D02*
X179243741Y-183407614D01*
X179243741Y-183407614D02*
X179243741Y-183264757D01*
X179243741Y-183264757D02*
X179172312Y-183121900D01*
X179172312Y-183121900D02*
X179100884Y-183050471D01*
X179100884Y-183050471D02*
X178958026Y-182979042D01*
X178958026Y-182979042D02*
X178672312Y-182907614D01*
X178672312Y-182907614D02*
X178529455Y-182836185D01*
X178529455Y-182836185D02*
X178458026Y-182764757D01*
X178458026Y-182764757D02*
X178386598Y-182621900D01*
X178386598Y-182621900D02*
X178386598Y-182479042D01*
X178386598Y-182479042D02*
X178458026Y-182336185D01*
X178458026Y-182336185D02*
X178529455Y-182264757D01*
X178529455Y-182264757D02*
X178672312Y-182193328D01*
X178672312Y-182193328D02*
X179029455Y-182193328D01*
X179029455Y-182193328D02*
X179243741Y-182264757D01*
X179886597Y-183693328D02*
X179886597Y-182193328D01*
X180529455Y-183693328D02*
X180529455Y-182907614D01*
X180529455Y-182907614D02*
X180458026Y-182764757D01*
X180458026Y-182764757D02*
X180315169Y-182693328D01*
X180315169Y-182693328D02*
X180100883Y-182693328D01*
X180100883Y-182693328D02*
X179958026Y-182764757D01*
X179958026Y-182764757D02*
X179886597Y-182836185D01*
X181815169Y-183621900D02*
X181672312Y-183693328D01*
X181672312Y-183693328D02*
X181386598Y-183693328D01*
X181386598Y-183693328D02*
X181243740Y-183621900D01*
X181243740Y-183621900D02*
X181172312Y-183479042D01*
X181172312Y-183479042D02*
X181172312Y-182907614D01*
X181172312Y-182907614D02*
X181243740Y-182764757D01*
X181243740Y-182764757D02*
X181386598Y-182693328D01*
X181386598Y-182693328D02*
X181672312Y-182693328D01*
X181672312Y-182693328D02*
X181815169Y-182764757D01*
X181815169Y-182764757D02*
X181886598Y-182907614D01*
X181886598Y-182907614D02*
X181886598Y-183050471D01*
X181886598Y-183050471D02*
X181172312Y-183193328D01*
X183100883Y-183621900D02*
X182958026Y-183693328D01*
X182958026Y-183693328D02*
X182672312Y-183693328D01*
X182672312Y-183693328D02*
X182529454Y-183621900D01*
X182529454Y-183621900D02*
X182458026Y-183479042D01*
X182458026Y-183479042D02*
X182458026Y-182907614D01*
X182458026Y-182907614D02*
X182529454Y-182764757D01*
X182529454Y-182764757D02*
X182672312Y-182693328D01*
X182672312Y-182693328D02*
X182958026Y-182693328D01*
X182958026Y-182693328D02*
X183100883Y-182764757D01*
X183100883Y-182764757D02*
X183172312Y-182907614D01*
X183172312Y-182907614D02*
X183172312Y-183050471D01*
X183172312Y-183050471D02*
X182458026Y-183193328D01*
X183600883Y-182693328D02*
X184172311Y-182693328D01*
X183815168Y-182193328D02*
X183815168Y-183479042D01*
X183815168Y-183479042D02*
X183886597Y-183621900D01*
X183886597Y-183621900D02*
X184029454Y-183693328D01*
X184029454Y-183693328D02*
X184172311Y-183693328D01*
X184672311Y-183550471D02*
X184743740Y-183621900D01*
X184743740Y-183621900D02*
X184672311Y-183693328D01*
X184672311Y-183693328D02*
X184600883Y-183621900D01*
X184600883Y-183621900D02*
X184672311Y-183550471D01*
X184672311Y-183550471D02*
X184672311Y-183693328D01*
X184672311Y-182764757D02*
X184743740Y-182836185D01*
X184743740Y-182836185D02*
X184672311Y-182907614D01*
X184672311Y-182907614D02*
X184600883Y-182836185D01*
X184600883Y-182836185D02*
X184672311Y-182764757D01*
X184672311Y-182764757D02*
X184672311Y-182907614D01*
D10*
D12*
X178556710Y-180685528D02*
X178556710Y-179185528D01*
X178556710Y-179185528D02*
X179056710Y-180256957D01*
X179056710Y-180256957D02*
X179556710Y-179185528D01*
X179556710Y-179185528D02*
X179556710Y-180685528D01*
X180913854Y-180685528D02*
X180913854Y-179899814D01*
X180913854Y-179899814D02*
X180842425Y-179756957D01*
X180842425Y-179756957D02*
X180699568Y-179685528D01*
X180699568Y-179685528D02*
X180413854Y-179685528D01*
X180413854Y-179685528D02*
X180270996Y-179756957D01*
X180913854Y-180614100D02*
X180770996Y-180685528D01*
X180770996Y-180685528D02*
X180413854Y-180685528D01*
X180413854Y-180685528D02*
X180270996Y-180614100D01*
X180270996Y-180614100D02*
X180199568Y-180471242D01*
X180199568Y-180471242D02*
X180199568Y-180328385D01*
X180199568Y-180328385D02*
X180270996Y-180185528D01*
X180270996Y-180185528D02*
X180413854Y-180114100D01*
X180413854Y-180114100D02*
X180770996Y-180114100D01*
X180770996Y-180114100D02*
X180913854Y-180042671D01*
X181628139Y-179685528D02*
X181628139Y-180685528D01*
X181628139Y-179828385D02*
X181699568Y-179756957D01*
X181699568Y-179756957D02*
X181842425Y-179685528D01*
X181842425Y-179685528D02*
X182056711Y-179685528D01*
X182056711Y-179685528D02*
X182199568Y-179756957D01*
X182199568Y-179756957D02*
X182270997Y-179899814D01*
X182270997Y-179899814D02*
X182270997Y-180685528D01*
X183628140Y-179685528D02*
X183628140Y-180685528D01*
X182985282Y-179685528D02*
X182985282Y-180471242D01*
X182985282Y-180471242D02*
X183056711Y-180614100D01*
X183056711Y-180614100D02*
X183199568Y-180685528D01*
X183199568Y-180685528D02*
X183413854Y-180685528D01*
X183413854Y-180685528D02*
X183556711Y-180614100D01*
X183556711Y-180614100D02*
X183628140Y-180542671D01*
X184913854Y-180614100D02*
X184770997Y-180685528D01*
X184770997Y-180685528D02*
X184485283Y-180685528D01*
X184485283Y-180685528D02*
X184342425Y-180614100D01*
X184342425Y-180614100D02*
X184270997Y-180471242D01*
X184270997Y-180471242D02*
X184270997Y-179899814D01*
X184270997Y-179899814D02*
X184342425Y-179756957D01*
X184342425Y-179756957D02*
X184485283Y-179685528D01*
X184485283Y-179685528D02*
X184770997Y-179685528D01*
X184770997Y-179685528D02*
X184913854Y-179756957D01*
X184913854Y-179756957D02*
X184985283Y-179899814D01*
X184985283Y-179899814D02*
X184985283Y-180042671D01*
X184985283Y-180042671D02*
X184270997Y-180185528D01*
X185842425Y-180685528D02*
X185699568Y-180614100D01*
X185699568Y-180614100D02*
X185628139Y-180471242D01*
X185628139Y-180471242D02*
X185628139Y-179185528D01*
X187556710Y-180685528D02*
X187556710Y-179185528D01*
X187556710Y-179185528D02*
X188128139Y-179185528D01*
X188128139Y-179185528D02*
X188270996Y-179256957D01*
X188270996Y-179256957D02*
X188342425Y-179328385D01*
X188342425Y-179328385D02*
X188413853Y-179471242D01*
X188413853Y-179471242D02*
X188413853Y-179685528D01*
X188413853Y-179685528D02*
X188342425Y-179828385D01*
X188342425Y-179828385D02*
X188270996Y-179899814D01*
X188270996Y-179899814D02*
X188128139Y-179971242D01*
X188128139Y-179971242D02*
X187556710Y-179971242D01*
X189056710Y-180685528D02*
X189056710Y-179685528D01*
X189056710Y-179185528D02*
X188985282Y-179256957D01*
X188985282Y-179256957D02*
X189056710Y-179328385D01*
X189056710Y-179328385D02*
X189128139Y-179256957D01*
X189128139Y-179256957D02*
X189056710Y-179185528D01*
X189056710Y-179185528D02*
X189056710Y-179328385D01*
X189770996Y-179685528D02*
X189770996Y-180685528D01*
X189770996Y-179828385D02*
X189842425Y-179756957D01*
X189842425Y-179756957D02*
X189985282Y-179685528D01*
X189985282Y-179685528D02*
X190199568Y-179685528D01*
X190199568Y-179685528D02*
X190342425Y-179756957D01*
X190342425Y-179756957D02*
X190413854Y-179899814D01*
X190413854Y-179899814D02*
X190413854Y-180685528D01*
X189699568Y-179328385D02*
X189770996Y-179256957D01*
X189770996Y-179256957D02*
X189913854Y-179185528D01*
X189913854Y-179185528D02*
X190199568Y-179328385D01*
X190199568Y-179328385D02*
X190342425Y-179256957D01*
X190342425Y-179256957D02*
X190413854Y-179185528D01*
X191770997Y-180685528D02*
X191770997Y-179899814D01*
X191770997Y-179899814D02*
X191699568Y-179756957D01*
X191699568Y-179756957D02*
X191556711Y-179685528D01*
X191556711Y-179685528D02*
X191270997Y-179685528D01*
X191270997Y-179685528D02*
X191128139Y-179756957D01*
X191770997Y-180614100D02*
X191628139Y-180685528D01*
X191628139Y-180685528D02*
X191270997Y-180685528D01*
X191270997Y-180685528D02*
X191128139Y-180614100D01*
X191128139Y-180614100D02*
X191056711Y-180471242D01*
X191056711Y-180471242D02*
X191056711Y-180328385D01*
X191056711Y-180328385D02*
X191128139Y-180185528D01*
X191128139Y-180185528D02*
X191270997Y-180114100D01*
X191270997Y-180114100D02*
X191628139Y-180114100D01*
X191628139Y-180114100D02*
X191770997Y-180042671D01*
X193913854Y-179185528D02*
X194199568Y-179185528D01*
X194199568Y-179185528D02*
X194342425Y-179256957D01*
X194342425Y-179256957D02*
X194485282Y-179399814D01*
X194485282Y-179399814D02*
X194556711Y-179685528D01*
X194556711Y-179685528D02*
X194556711Y-180185528D01*
X194556711Y-180185528D02*
X194485282Y-180471242D01*
X194485282Y-180471242D02*
X194342425Y-180614100D01*
X194342425Y-180614100D02*
X194199568Y-180685528D01*
X194199568Y-180685528D02*
X193913854Y-180685528D01*
X193913854Y-180685528D02*
X193770997Y-180614100D01*
X193770997Y-180614100D02*
X193628139Y-180471242D01*
X193628139Y-180471242D02*
X193556711Y-180185528D01*
X193556711Y-180185528D02*
X193556711Y-179685528D01*
X193556711Y-179685528D02*
X193628139Y-179399814D01*
X193628139Y-179399814D02*
X193770997Y-179256957D01*
X193770997Y-179256957D02*
X193913854Y-179185528D01*
X195413854Y-180685528D02*
X195270997Y-180614100D01*
X195270997Y-180614100D02*
X195199568Y-180471242D01*
X195199568Y-180471242D02*
X195199568Y-179185528D01*
X195985282Y-180685528D02*
X195985282Y-179685528D01*
X195985282Y-179185528D02*
X195913854Y-179256957D01*
X195913854Y-179256957D02*
X195985282Y-179328385D01*
X195985282Y-179328385D02*
X196056711Y-179256957D01*
X196056711Y-179256957D02*
X195985282Y-179185528D01*
X195985282Y-179185528D02*
X195985282Y-179328385D01*
X196556711Y-179685528D02*
X196913854Y-180685528D01*
X196913854Y-180685528D02*
X197270997Y-179685528D01*
X198485283Y-180685528D02*
X198485283Y-179899814D01*
X198485283Y-179899814D02*
X198413854Y-179756957D01*
X198413854Y-179756957D02*
X198270997Y-179685528D01*
X198270997Y-179685528D02*
X197985283Y-179685528D01*
X197985283Y-179685528D02*
X197842425Y-179756957D01*
X198485283Y-180614100D02*
X198342425Y-180685528D01*
X198342425Y-180685528D02*
X197985283Y-180685528D01*
X197985283Y-180685528D02*
X197842425Y-180614100D01*
X197842425Y-180614100D02*
X197770997Y-180471242D01*
X197770997Y-180471242D02*
X197770997Y-180328385D01*
X197770997Y-180328385D02*
X197842425Y-180185528D01*
X197842425Y-180185528D02*
X197985283Y-180114100D01*
X197985283Y-180114100D02*
X198342425Y-180114100D01*
X198342425Y-180114100D02*
X198485283Y-180042671D01*
X199128140Y-180614100D02*
X199270997Y-180685528D01*
X199270997Y-180685528D02*
X199556711Y-180685528D01*
X199556711Y-180685528D02*
X199699568Y-180614100D01*
X199699568Y-180614100D02*
X199770997Y-180471242D01*
X199770997Y-180471242D02*
X199770997Y-180399814D01*
X199770997Y-180399814D02*
X199699568Y-180256957D01*
X199699568Y-180256957D02*
X199556711Y-180185528D01*
X199556711Y-180185528D02*
X199342426Y-180185528D01*
X199342426Y-180185528D02*
X199199568Y-180114100D01*
X199199568Y-180114100D02*
X199128140Y-179971242D01*
X199128140Y-179971242D02*
X199128140Y-179899814D01*
X199128140Y-179899814D02*
X199199568Y-179756957D01*
X199199568Y-179756957D02*
X199342426Y-179685528D01*
X199342426Y-179685528D02*
X199556711Y-179685528D01*
X199556711Y-179685528D02*
X199699568Y-179756957D01*
D10*
D11*
X197002200Y-191507200D02*
X197002200Y-194507200D01*
D10*
D11*
X261002200Y-191507200D02*
X261002200Y-198007200D01*
X110624819Y-85676904D02*
X111434342Y-85676904D01*
X111434342Y-85676904D02*
X111529580Y-85629285D01*
X111529580Y-85629285D02*
X111577200Y-85581666D01*
X111577200Y-85581666D02*
X111624819Y-85486428D01*
X111624819Y-85486428D02*
X111624819Y-85295952D01*
X111624819Y-85295952D02*
X111577200Y-85200714D01*
X111577200Y-85200714D02*
X111529580Y-85153095D01*
X111529580Y-85153095D02*
X111434342Y-85105476D01*
X111434342Y-85105476D02*
X110624819Y-85105476D01*
X111624819Y-84105476D02*
X111624819Y-84676904D01*
X111624819Y-84391190D02*
X110624819Y-84391190D01*
X110624819Y-84391190D02*
X110767676Y-84486428D01*
X110767676Y-84486428D02*
X110862914Y-84581666D01*
X110862914Y-84581666D02*
X110910533Y-84676904D01*
X126484819Y-99963094D02*
X125484819Y-99963094D01*
X125484819Y-99963094D02*
X125484819Y-99724999D01*
X125484819Y-99724999D02*
X125532438Y-99582142D01*
X125532438Y-99582142D02*
X125627676Y-99486904D01*
X125627676Y-99486904D02*
X125722914Y-99439285D01*
X125722914Y-99439285D02*
X125913390Y-99391666D01*
X125913390Y-99391666D02*
X126056247Y-99391666D01*
X126056247Y-99391666D02*
X126246723Y-99439285D01*
X126246723Y-99439285D02*
X126341961Y-99486904D01*
X126341961Y-99486904D02*
X126437200Y-99582142D01*
X126437200Y-99582142D02*
X126484819Y-99724999D01*
X126484819Y-99724999D02*
X126484819Y-99963094D01*
X125484819Y-99058332D02*
X125484819Y-98439285D01*
X125484819Y-98439285D02*
X125865771Y-98772618D01*
X125865771Y-98772618D02*
X125865771Y-98629761D01*
X125865771Y-98629761D02*
X125913390Y-98534523D01*
X125913390Y-98534523D02*
X125961009Y-98486904D01*
X125961009Y-98486904D02*
X126056247Y-98439285D01*
X126056247Y-98439285D02*
X126294342Y-98439285D01*
X126294342Y-98439285D02*
X126389580Y-98486904D01*
X126389580Y-98486904D02*
X126437200Y-98534523D01*
X126437200Y-98534523D02*
X126484819Y-98629761D01*
X126484819Y-98629761D02*
X126484819Y-98915475D01*
X126484819Y-98915475D02*
X126437200Y-99010713D01*
X126437200Y-99010713D02*
X126389580Y-99058332D01*
X126854819Y-104566904D02*
X125854819Y-104566904D01*
X126854819Y-103995476D02*
X126283390Y-104424047D01*
X125854819Y-103995476D02*
X126426247Y-104566904D01*
X181666666Y-129047319D02*
X181666666Y-129761604D01*
X181666666Y-129761604D02*
X181619047Y-129904461D01*
X181619047Y-129904461D02*
X181523809Y-129999700D01*
X181523809Y-129999700D02*
X181380952Y-130047319D01*
X181380952Y-130047319D02*
X181285714Y-130047319D01*
X182619047Y-129047319D02*
X182142857Y-129047319D01*
X182142857Y-129047319D02*
X182095238Y-129523509D01*
X182095238Y-129523509D02*
X182142857Y-129475890D01*
X182142857Y-129475890D02*
X182238095Y-129428271D01*
X182238095Y-129428271D02*
X182476190Y-129428271D01*
X182476190Y-129428271D02*
X182571428Y-129475890D01*
X182571428Y-129475890D02*
X182619047Y-129523509D01*
X182619047Y-129523509D02*
X182666666Y-129618747D01*
X182666666Y-129618747D02*
X182666666Y-129856842D01*
X182666666Y-129856842D02*
X182619047Y-129952080D01*
X182619047Y-129952080D02*
X182571428Y-129999700D01*
X182571428Y-129999700D02*
X182476190Y-130047319D01*
X182476190Y-130047319D02*
X182238095Y-130047319D01*
X182238095Y-130047319D02*
X182142857Y-129999700D01*
X182142857Y-129999700D02*
X182095238Y-129952080D01*
X131424819Y-72463094D02*
X130424819Y-72463094D01*
X130424819Y-72463094D02*
X130424819Y-72224999D01*
X130424819Y-72224999D02*
X130472438Y-72082142D01*
X130472438Y-72082142D02*
X130567676Y-71986904D01*
X130567676Y-71986904D02*
X130662914Y-71939285D01*
X130662914Y-71939285D02*
X130853390Y-71891666D01*
X130853390Y-71891666D02*
X130996247Y-71891666D01*
X130996247Y-71891666D02*
X131186723Y-71939285D01*
X131186723Y-71939285D02*
X131281961Y-71986904D01*
X131281961Y-71986904D02*
X131377200Y-72082142D01*
X131377200Y-72082142D02*
X131424819Y-72224999D01*
X131424819Y-72224999D02*
X131424819Y-72463094D01*
X130520057Y-71510713D02*
X130472438Y-71463094D01*
X130472438Y-71463094D02*
X130424819Y-71367856D01*
X130424819Y-71367856D02*
X130424819Y-71129761D01*
X130424819Y-71129761D02*
X130472438Y-71034523D01*
X130472438Y-71034523D02*
X130520057Y-70986904D01*
X130520057Y-70986904D02*
X130615295Y-70939285D01*
X130615295Y-70939285D02*
X130710533Y-70939285D01*
X130710533Y-70939285D02*
X130853390Y-70986904D01*
X130853390Y-70986904D02*
X131424819Y-71558332D01*
X131424819Y-71558332D02*
X131424819Y-70939285D01*
X131054819Y-66906904D02*
X130054819Y-66906904D01*
X131054819Y-66335476D02*
X130483390Y-66764047D01*
X130054819Y-66335476D02*
X130626247Y-66906904D01*
X121916666Y-107879819D02*
X121916666Y-108594104D01*
X121916666Y-108594104D02*
X121869047Y-108736961D01*
X121869047Y-108736961D02*
X121773809Y-108832200D01*
X121773809Y-108832200D02*
X121630952Y-108879819D01*
X121630952Y-108879819D02*
X121535714Y-108879819D01*
X122345238Y-107975057D02*
X122392857Y-107927438D01*
X122392857Y-107927438D02*
X122488095Y-107879819D01*
X122488095Y-107879819D02*
X122726190Y-107879819D01*
X122726190Y-107879819D02*
X122821428Y-107927438D01*
X122821428Y-107927438D02*
X122869047Y-107975057D01*
X122869047Y-107975057D02*
X122916666Y-108070295D01*
X122916666Y-108070295D02*
X122916666Y-108165533D01*
X122916666Y-108165533D02*
X122869047Y-108308390D01*
X122869047Y-108308390D02*
X122297619Y-108879819D01*
X122297619Y-108879819D02*
X122916666Y-108879819D01*
X173484819Y-100963094D02*
X172484819Y-100963094D01*
X172484819Y-100963094D02*
X172484819Y-100724999D01*
X172484819Y-100724999D02*
X172532438Y-100582142D01*
X172532438Y-100582142D02*
X172627676Y-100486904D01*
X172627676Y-100486904D02*
X172722914Y-100439285D01*
X172722914Y-100439285D02*
X172913390Y-100391666D01*
X172913390Y-100391666D02*
X173056247Y-100391666D01*
X173056247Y-100391666D02*
X173246723Y-100439285D01*
X173246723Y-100439285D02*
X173341961Y-100486904D01*
X173341961Y-100486904D02*
X173437200Y-100582142D01*
X173437200Y-100582142D02*
X173484819Y-100724999D01*
X173484819Y-100724999D02*
X173484819Y-100963094D01*
X172484819Y-100058332D02*
X172484819Y-99391666D01*
X172484819Y-99391666D02*
X173484819Y-99820237D01*
X173854819Y-105566904D02*
X172854819Y-105566904D01*
X173854819Y-104995476D02*
X173283390Y-105424047D01*
X172854819Y-104995476D02*
X173426247Y-105566904D01*
X121916666Y-63979819D02*
X121916666Y-64694104D01*
X121916666Y-64694104D02*
X121869047Y-64836961D01*
X121869047Y-64836961D02*
X121773809Y-64932200D01*
X121773809Y-64932200D02*
X121630952Y-64979819D01*
X121630952Y-64979819D02*
X121535714Y-64979819D01*
X122916666Y-64979819D02*
X122345238Y-64979819D01*
X122630952Y-64979819D02*
X122630952Y-63979819D01*
X122630952Y-63979819D02*
X122535714Y-64122676D01*
X122535714Y-64122676D02*
X122440476Y-64217914D01*
X122440476Y-64217914D02*
X122345238Y-64265533D01*
X181416666Y-64254819D02*
X181416666Y-64969104D01*
X181416666Y-64969104D02*
X181369047Y-65111961D01*
X181369047Y-65111961D02*
X181273809Y-65207200D01*
X181273809Y-65207200D02*
X181130952Y-65254819D01*
X181130952Y-65254819D02*
X181035714Y-65254819D01*
X181797619Y-64254819D02*
X182416666Y-64254819D01*
X182416666Y-64254819D02*
X182083333Y-64635771D01*
X182083333Y-64635771D02*
X182226190Y-64635771D01*
X182226190Y-64635771D02*
X182321428Y-64683390D01*
X182321428Y-64683390D02*
X182369047Y-64731009D01*
X182369047Y-64731009D02*
X182416666Y-64826247D01*
X182416666Y-64826247D02*
X182416666Y-65064342D01*
X182416666Y-65064342D02*
X182369047Y-65159580D01*
X182369047Y-65159580D02*
X182321428Y-65207200D01*
X182321428Y-65207200D02*
X182226190Y-65254819D01*
X182226190Y-65254819D02*
X181940476Y-65254819D01*
X181940476Y-65254819D02*
X181845238Y-65207200D01*
X181845238Y-65207200D02*
X181797619Y-65159580D01*
X185904819Y-100963094D02*
X184904819Y-100963094D01*
X184904819Y-100963094D02*
X184904819Y-100724999D01*
X184904819Y-100724999D02*
X184952438Y-100582142D01*
X184952438Y-100582142D02*
X185047676Y-100486904D01*
X185047676Y-100486904D02*
X185142914Y-100439285D01*
X185142914Y-100439285D02*
X185333390Y-100391666D01*
X185333390Y-100391666D02*
X185476247Y-100391666D01*
X185476247Y-100391666D02*
X185666723Y-100439285D01*
X185666723Y-100439285D02*
X185761961Y-100486904D01*
X185761961Y-100486904D02*
X185857200Y-100582142D01*
X185857200Y-100582142D02*
X185904819Y-100724999D01*
X185904819Y-100724999D02*
X185904819Y-100963094D01*
X185333390Y-99820237D02*
X185285771Y-99915475D01*
X185285771Y-99915475D02*
X185238152Y-99963094D01*
X185238152Y-99963094D02*
X185142914Y-100010713D01*
X185142914Y-100010713D02*
X185095295Y-100010713D01*
X185095295Y-100010713D02*
X185000057Y-99963094D01*
X185000057Y-99963094D02*
X184952438Y-99915475D01*
X184952438Y-99915475D02*
X184904819Y-99820237D01*
X184904819Y-99820237D02*
X184904819Y-99629761D01*
X184904819Y-99629761D02*
X184952438Y-99534523D01*
X184952438Y-99534523D02*
X185000057Y-99486904D01*
X185000057Y-99486904D02*
X185095295Y-99439285D01*
X185095295Y-99439285D02*
X185142914Y-99439285D01*
X185142914Y-99439285D02*
X185238152Y-99486904D01*
X185238152Y-99486904D02*
X185285771Y-99534523D01*
X185285771Y-99534523D02*
X185333390Y-99629761D01*
X185333390Y-99629761D02*
X185333390Y-99820237D01*
X185333390Y-99820237D02*
X185381009Y-99915475D01*
X185381009Y-99915475D02*
X185428628Y-99963094D01*
X185428628Y-99963094D02*
X185523866Y-100010713D01*
X185523866Y-100010713D02*
X185714342Y-100010713D01*
X185714342Y-100010713D02*
X185809580Y-99963094D01*
X185809580Y-99963094D02*
X185857200Y-99915475D01*
X185857200Y-99915475D02*
X185904819Y-99820237D01*
X185904819Y-99820237D02*
X185904819Y-99629761D01*
X185904819Y-99629761D02*
X185857200Y-99534523D01*
X185857200Y-99534523D02*
X185809580Y-99486904D01*
X185809580Y-99486904D02*
X185714342Y-99439285D01*
X185714342Y-99439285D02*
X185523866Y-99439285D01*
X185523866Y-99439285D02*
X185428628Y-99486904D01*
X185428628Y-99486904D02*
X185381009Y-99534523D01*
X185381009Y-99534523D02*
X185333390Y-99629761D01*
X186274819Y-105566904D02*
X185274819Y-105566904D01*
X186274819Y-104995476D02*
X185703390Y-105424047D01*
X185274819Y-104995476D02*
X185846247Y-105566904D01*
X178424819Y-72458094D02*
X177424819Y-72458094D01*
X177424819Y-72458094D02*
X177424819Y-72219999D01*
X177424819Y-72219999D02*
X177472438Y-72077142D01*
X177472438Y-72077142D02*
X177567676Y-71981904D01*
X177567676Y-71981904D02*
X177662914Y-71934285D01*
X177662914Y-71934285D02*
X177853390Y-71886666D01*
X177853390Y-71886666D02*
X177996247Y-71886666D01*
X177996247Y-71886666D02*
X178186723Y-71934285D01*
X178186723Y-71934285D02*
X178281961Y-71981904D01*
X178281961Y-71981904D02*
X178377200Y-72077142D01*
X178377200Y-72077142D02*
X178424819Y-72219999D01*
X178424819Y-72219999D02*
X178424819Y-72458094D01*
X177424819Y-71029523D02*
X177424819Y-71219999D01*
X177424819Y-71219999D02*
X177472438Y-71315237D01*
X177472438Y-71315237D02*
X177520057Y-71362856D01*
X177520057Y-71362856D02*
X177662914Y-71458094D01*
X177662914Y-71458094D02*
X177853390Y-71505713D01*
X177853390Y-71505713D02*
X178234342Y-71505713D01*
X178234342Y-71505713D02*
X178329580Y-71458094D01*
X178329580Y-71458094D02*
X178377200Y-71410475D01*
X178377200Y-71410475D02*
X178424819Y-71315237D01*
X178424819Y-71315237D02*
X178424819Y-71124761D01*
X178424819Y-71124761D02*
X178377200Y-71029523D01*
X178377200Y-71029523D02*
X178329580Y-70981904D01*
X178329580Y-70981904D02*
X178234342Y-70934285D01*
X178234342Y-70934285D02*
X177996247Y-70934285D01*
X177996247Y-70934285D02*
X177901009Y-70981904D01*
X177901009Y-70981904D02*
X177853390Y-71029523D01*
X177853390Y-71029523D02*
X177805771Y-71124761D01*
X177805771Y-71124761D02*
X177805771Y-71315237D01*
X177805771Y-71315237D02*
X177853390Y-71410475D01*
X177853390Y-71410475D02*
X177901009Y-71458094D01*
X177901009Y-71458094D02*
X177996247Y-71505713D01*
X178054819Y-66901904D02*
X177054819Y-66901904D01*
X178054819Y-66330476D02*
X177483390Y-66759047D01*
X177054819Y-66330476D02*
X177626247Y-66901904D01*
X118924819Y-72463094D02*
X117924819Y-72463094D01*
X117924819Y-72463094D02*
X117924819Y-72224999D01*
X117924819Y-72224999D02*
X117972438Y-72082142D01*
X117972438Y-72082142D02*
X118067676Y-71986904D01*
X118067676Y-71986904D02*
X118162914Y-71939285D01*
X118162914Y-71939285D02*
X118353390Y-71891666D01*
X118353390Y-71891666D02*
X118496247Y-71891666D01*
X118496247Y-71891666D02*
X118686723Y-71939285D01*
X118686723Y-71939285D02*
X118781961Y-71986904D01*
X118781961Y-71986904D02*
X118877200Y-72082142D01*
X118877200Y-72082142D02*
X118924819Y-72224999D01*
X118924819Y-72224999D02*
X118924819Y-72463094D01*
X118924819Y-70939285D02*
X118924819Y-71510713D01*
X118924819Y-71224999D02*
X117924819Y-71224999D01*
X117924819Y-71224999D02*
X118067676Y-71320237D01*
X118067676Y-71320237D02*
X118162914Y-71415475D01*
X118162914Y-71415475D02*
X118210533Y-71510713D01*
X118554819Y-66906904D02*
X117554819Y-66906904D01*
X118554819Y-66335476D02*
X117983390Y-66764047D01*
X117554819Y-66335476D02*
X118126247Y-66906904D01*
X181416666Y-108179819D02*
X181416666Y-108894104D01*
X181416666Y-108894104D02*
X181369047Y-109036961D01*
X181369047Y-109036961D02*
X181273809Y-109132200D01*
X181273809Y-109132200D02*
X181130952Y-109179819D01*
X181130952Y-109179819D02*
X181035714Y-109179819D01*
X182321428Y-108513152D02*
X182321428Y-109179819D01*
X182083333Y-108132200D02*
X181845238Y-108846485D01*
X181845238Y-108846485D02*
X182464285Y-108846485D01*
X190924819Y-72538094D02*
X189924819Y-72538094D01*
X189924819Y-72538094D02*
X189924819Y-72299999D01*
X189924819Y-72299999D02*
X189972438Y-72157142D01*
X189972438Y-72157142D02*
X190067676Y-72061904D01*
X190067676Y-72061904D02*
X190162914Y-72014285D01*
X190162914Y-72014285D02*
X190353390Y-71966666D01*
X190353390Y-71966666D02*
X190496247Y-71966666D01*
X190496247Y-71966666D02*
X190686723Y-72014285D01*
X190686723Y-72014285D02*
X190781961Y-72061904D01*
X190781961Y-72061904D02*
X190877200Y-72157142D01*
X190877200Y-72157142D02*
X190924819Y-72299999D01*
X190924819Y-72299999D02*
X190924819Y-72538094D01*
X189924819Y-71061904D02*
X189924819Y-71538094D01*
X189924819Y-71538094D02*
X190401009Y-71585713D01*
X190401009Y-71585713D02*
X190353390Y-71538094D01*
X190353390Y-71538094D02*
X190305771Y-71442856D01*
X190305771Y-71442856D02*
X190305771Y-71204761D01*
X190305771Y-71204761D02*
X190353390Y-71109523D01*
X190353390Y-71109523D02*
X190401009Y-71061904D01*
X190401009Y-71061904D02*
X190496247Y-71014285D01*
X190496247Y-71014285D02*
X190734342Y-71014285D01*
X190734342Y-71014285D02*
X190829580Y-71061904D01*
X190829580Y-71061904D02*
X190877200Y-71109523D01*
X190877200Y-71109523D02*
X190924819Y-71204761D01*
X190924819Y-71204761D02*
X190924819Y-71442856D01*
X190924819Y-71442856D02*
X190877200Y-71538094D01*
X190877200Y-71538094D02*
X190829580Y-71585713D01*
X190554819Y-66981904D02*
X189554819Y-66981904D01*
X190554819Y-66410476D02*
X189983390Y-66839047D01*
X189554819Y-66410476D02*
X190126247Y-66981904D01*
D10*
X151238095Y-66457419D02*
X151238095Y-67266942D01*
X151238095Y-67266942D02*
X151285714Y-67362180D01*
X151285714Y-67362180D02*
X151333333Y-67409800D01*
X151333333Y-67409800D02*
X151428571Y-67457419D01*
X151428571Y-67457419D02*
X151619047Y-67457419D01*
X151619047Y-67457419D02*
X151714285Y-67409800D01*
X151714285Y-67409800D02*
X151761904Y-67362180D01*
X151761904Y-67362180D02*
X151809523Y-67266942D01*
X151809523Y-67266942D02*
X151809523Y-66457419D01*
X152190476Y-66457419D02*
X152809523Y-66457419D01*
X152809523Y-66457419D02*
X152476190Y-66838371D01*
X152476190Y-66838371D02*
X152619047Y-66838371D01*
X152619047Y-66838371D02*
X152714285Y-66885990D01*
X152714285Y-66885990D02*
X152761904Y-66933609D01*
X152761904Y-66933609D02*
X152809523Y-67028847D01*
X152809523Y-67028847D02*
X152809523Y-67266942D01*
X152809523Y-67266942D02*
X152761904Y-67362180D01*
X152761904Y-67362180D02*
X152714285Y-67409800D01*
X152714285Y-67409800D02*
X152619047Y-67457419D01*
X152619047Y-67457419D02*
X152333333Y-67457419D01*
X152333333Y-67457419D02*
X152238095Y-67409800D01*
X152238095Y-67409800D02*
X152190476Y-67362180D01*
X149756265Y-62311704D02*
X150232455Y-62311704D01*
X149661027Y-62597419D02*
X149994360Y-61597419D01*
X149994360Y-61597419D02*
X150327693Y-62597419D01*
X150661027Y-61930752D02*
X150661027Y-62597419D01*
X150661027Y-62025990D02*
X150708646Y-61978371D01*
X150708646Y-61978371D02*
X150803884Y-61930752D01*
X150803884Y-61930752D02*
X150946741Y-61930752D01*
X150946741Y-61930752D02*
X151041979Y-61978371D01*
X151041979Y-61978371D02*
X151089598Y-62073609D01*
X151089598Y-62073609D02*
X151089598Y-62597419D01*
X151422932Y-61930752D02*
X151803884Y-61930752D01*
X151565789Y-61597419D02*
X151565789Y-62454561D01*
X151565789Y-62454561D02*
X151613408Y-62549800D01*
X151613408Y-62549800D02*
X151708646Y-62597419D01*
X151708646Y-62597419D02*
X151803884Y-62597419D01*
X152518170Y-62549800D02*
X152422932Y-62597419D01*
X152422932Y-62597419D02*
X152232456Y-62597419D01*
X152232456Y-62597419D02*
X152137218Y-62549800D01*
X152137218Y-62549800D02*
X152089599Y-62454561D01*
X152089599Y-62454561D02*
X152089599Y-62073609D01*
X152089599Y-62073609D02*
X152137218Y-61978371D01*
X152137218Y-61978371D02*
X152232456Y-61930752D01*
X152232456Y-61930752D02*
X152422932Y-61930752D01*
X152422932Y-61930752D02*
X152518170Y-61978371D01*
X152518170Y-61978371D02*
X152565789Y-62073609D01*
X152565789Y-62073609D02*
X152565789Y-62168847D01*
X152565789Y-62168847D02*
X152089599Y-62264085D01*
X152994361Y-61930752D02*
X152994361Y-62597419D01*
X152994361Y-62025990D02*
X153041980Y-61978371D01*
X153041980Y-61978371D02*
X153137218Y-61930752D01*
X153137218Y-61930752D02*
X153280075Y-61930752D01*
X153280075Y-61930752D02*
X153375313Y-61978371D01*
X153375313Y-61978371D02*
X153422932Y-62073609D01*
X153422932Y-62073609D02*
X153422932Y-62597419D01*
X154327694Y-62597419D02*
X154327694Y-62073609D01*
X154327694Y-62073609D02*
X154280075Y-61978371D01*
X154280075Y-61978371D02*
X154184837Y-61930752D01*
X154184837Y-61930752D02*
X153994361Y-61930752D01*
X153994361Y-61930752D02*
X153899123Y-61978371D01*
X154327694Y-62549800D02*
X154232456Y-62597419D01*
X154232456Y-62597419D02*
X153994361Y-62597419D01*
X153994361Y-62597419D02*
X153899123Y-62549800D01*
X153899123Y-62549800D02*
X153851504Y-62454561D01*
X153851504Y-62454561D02*
X153851504Y-62359323D01*
X153851504Y-62359323D02*
X153899123Y-62264085D01*
X153899123Y-62264085D02*
X153994361Y-62216466D01*
X153994361Y-62216466D02*
X154232456Y-62216466D01*
X154232456Y-62216466D02*
X154327694Y-62168847D01*
X150803884Y-110247419D02*
X150803884Y-111056942D01*
X150803884Y-111056942D02*
X150851503Y-111152180D01*
X150851503Y-111152180D02*
X150899122Y-111199800D01*
X150899122Y-111199800D02*
X150994360Y-111247419D01*
X150994360Y-111247419D02*
X151184836Y-111247419D01*
X151184836Y-111247419D02*
X151280074Y-111199800D01*
X151280074Y-111199800D02*
X151327693Y-111152180D01*
X151327693Y-111152180D02*
X151375312Y-111056942D01*
X151375312Y-111056942D02*
X151375312Y-110247419D01*
X151803884Y-111199800D02*
X151946741Y-111247419D01*
X151946741Y-111247419D02*
X152184836Y-111247419D01*
X152184836Y-111247419D02*
X152280074Y-111199800D01*
X152280074Y-111199800D02*
X152327693Y-111152180D01*
X152327693Y-111152180D02*
X152375312Y-111056942D01*
X152375312Y-111056942D02*
X152375312Y-110961704D01*
X152375312Y-110961704D02*
X152327693Y-110866466D01*
X152327693Y-110866466D02*
X152280074Y-110818847D01*
X152280074Y-110818847D02*
X152184836Y-110771228D01*
X152184836Y-110771228D02*
X151994360Y-110723609D01*
X151994360Y-110723609D02*
X151899122Y-110675990D01*
X151899122Y-110675990D02*
X151851503Y-110628371D01*
X151851503Y-110628371D02*
X151803884Y-110533133D01*
X151803884Y-110533133D02*
X151803884Y-110437895D01*
X151803884Y-110437895D02*
X151851503Y-110342657D01*
X151851503Y-110342657D02*
X151899122Y-110295038D01*
X151899122Y-110295038D02*
X151994360Y-110247419D01*
X151994360Y-110247419D02*
X152232455Y-110247419D01*
X152232455Y-110247419D02*
X152375312Y-110295038D01*
X153137217Y-110723609D02*
X153280074Y-110771228D01*
X153280074Y-110771228D02*
X153327693Y-110818847D01*
X153327693Y-110818847D02*
X153375312Y-110914085D01*
X153375312Y-110914085D02*
X153375312Y-111056942D01*
X153375312Y-111056942D02*
X153327693Y-111152180D01*
X153327693Y-111152180D02*
X153280074Y-111199800D01*
X153280074Y-111199800D02*
X153184836Y-111247419D01*
X153184836Y-111247419D02*
X152803884Y-111247419D01*
X152803884Y-111247419D02*
X152803884Y-110247419D01*
X152803884Y-110247419D02*
X153137217Y-110247419D01*
X153137217Y-110247419D02*
X153232455Y-110295038D01*
X153232455Y-110295038D02*
X153280074Y-110342657D01*
X153280074Y-110342657D02*
X153327693Y-110437895D01*
X153327693Y-110437895D02*
X153327693Y-110533133D01*
X153327693Y-110533133D02*
X153280074Y-110628371D01*
X153280074Y-110628371D02*
X153232455Y-110675990D01*
X153232455Y-110675990D02*
X153137217Y-110723609D01*
X153137217Y-110723609D02*
X152803884Y-110723609D01*
D11*
X113984819Y-99963094D02*
X112984819Y-99963094D01*
X112984819Y-99963094D02*
X112984819Y-99724999D01*
X112984819Y-99724999D02*
X113032438Y-99582142D01*
X113032438Y-99582142D02*
X113127676Y-99486904D01*
X113127676Y-99486904D02*
X113222914Y-99439285D01*
X113222914Y-99439285D02*
X113413390Y-99391666D01*
X113413390Y-99391666D02*
X113556247Y-99391666D01*
X113556247Y-99391666D02*
X113746723Y-99439285D01*
X113746723Y-99439285D02*
X113841961Y-99486904D01*
X113841961Y-99486904D02*
X113937200Y-99582142D01*
X113937200Y-99582142D02*
X113984819Y-99724999D01*
X113984819Y-99724999D02*
X113984819Y-99963094D01*
X113318152Y-98534523D02*
X113984819Y-98534523D01*
X112937200Y-98772618D02*
X113651485Y-99010713D01*
X113651485Y-99010713D02*
X113651485Y-98391666D01*
X114354819Y-104566904D02*
X113354819Y-104566904D01*
X114354819Y-103995476D02*
X113783390Y-104424047D01*
X113354819Y-103995476D02*
X113926247Y-104566904D01*
X192324819Y-85676904D02*
X193134342Y-85676904D01*
X193134342Y-85676904D02*
X193229580Y-85629285D01*
X193229580Y-85629285D02*
X193277200Y-85581666D01*
X193277200Y-85581666D02*
X193324819Y-85486428D01*
X193324819Y-85486428D02*
X193324819Y-85295952D01*
X193324819Y-85295952D02*
X193277200Y-85200714D01*
X193277200Y-85200714D02*
X193229580Y-85153095D01*
X193229580Y-85153095D02*
X193134342Y-85105476D01*
X193134342Y-85105476D02*
X192324819Y-85105476D01*
X192420057Y-84676904D02*
X192372438Y-84629285D01*
X192372438Y-84629285D02*
X192324819Y-84534047D01*
X192324819Y-84534047D02*
X192324819Y-84295952D01*
X192324819Y-84295952D02*
X192372438Y-84200714D01*
X192372438Y-84200714D02*
X192420057Y-84153095D01*
X192420057Y-84153095D02*
X192515295Y-84105476D01*
X192515295Y-84105476D02*
X192610533Y-84105476D01*
X192610533Y-84105476D02*
X192753390Y-84153095D01*
X192753390Y-84153095D02*
X193324819Y-84724523D01*
X193324819Y-84724523D02*
X193324819Y-84105476D01*
D14*
%TO.C,U1*%
X112170000Y-82265000D02*
X112170000Y-83915000D01*
X112170000Y-85915000D02*
X112170000Y-87565000D01*
X112170000Y-87565000D02*
X132610000Y-87565000D01*
X132610000Y-82265000D02*
X112170000Y-82265000D01*
X132610000Y-87565000D02*
X132610000Y-82265000D01*
X112170000Y-83915000D02*
G75*
G02*
X112170000Y-85915000I0J-1000000D01*
G01*
%TO.C,D3*%
X127030000Y-96505000D02*
X127030000Y-101945000D01*
X127030000Y-100925000D02*
X129970000Y-100925000D01*
X127030000Y-101045000D02*
X129970000Y-101045000D01*
X127030000Y-101165000D02*
X129970000Y-101165000D01*
X127030000Y-101945000D02*
X129970000Y-101945000D01*
X128500000Y-95485000D02*
X128500000Y-96505000D01*
X128500000Y-102965000D02*
X128500000Y-101945000D01*
X129970000Y-96505000D02*
X127030000Y-96505000D01*
X129970000Y-101945000D02*
X129970000Y-96505000D01*
%TO.C,J5*%
X176890000Y-120082500D02*
X178110000Y-120082500D01*
X176890000Y-127282500D02*
X178110000Y-127282500D01*
X176890000Y-128502500D02*
X176890000Y-120082500D01*
X178110000Y-120082500D02*
X178110000Y-122282500D01*
X178110000Y-122282500D02*
X176890000Y-122282500D01*
X178110000Y-127282500D02*
X178110000Y-122282500D01*
X179180000Y-123282500D02*
X179500000Y-123282500D01*
X179180000Y-126702500D02*
X179180000Y-123282500D01*
X179500000Y-123282500D02*
X179820000Y-123282500D01*
X179500000Y-126782500D02*
X179180000Y-126702500D01*
X179820000Y-123282500D02*
X179820000Y-126702500D01*
X179820000Y-126702500D02*
X179500000Y-126782500D01*
X180830000Y-122282500D02*
X180670000Y-122282500D01*
X181680000Y-123282500D02*
X182000000Y-123282500D01*
X181680000Y-126702500D02*
X181680000Y-123282500D01*
X182000000Y-123282500D02*
X182320000Y-123282500D01*
X182000000Y-126782500D02*
X181680000Y-126702500D01*
X182320000Y-123282500D02*
X182320000Y-126702500D01*
X182320000Y-126702500D02*
X182000000Y-126782500D01*
X183330000Y-122282500D02*
X183170000Y-122282500D01*
X184180000Y-123282500D02*
X184500000Y-123282500D01*
X184180000Y-126702500D02*
X184180000Y-123282500D01*
X184200000Y-119592500D02*
X184500000Y-120192500D01*
X184500000Y-120192500D02*
X184800000Y-119592500D01*
X184500000Y-123282500D02*
X184820000Y-123282500D01*
X184500000Y-126782500D02*
X184180000Y-126702500D01*
X184800000Y-119592500D02*
X184200000Y-119592500D01*
X184820000Y-123282500D02*
X184820000Y-126702500D01*
X184820000Y-126702500D02*
X184500000Y-126782500D01*
X185890000Y-120082500D02*
X187110000Y-120082500D01*
X185890000Y-122282500D02*
X185890000Y-120082500D01*
X185890000Y-122282500D02*
X187110000Y-122282500D01*
X185890000Y-123282500D02*
X178110000Y-123282500D01*
X185890000Y-127282500D02*
X185890000Y-122282500D01*
X187110000Y-120082500D02*
X187110000Y-128502500D01*
X187110000Y-127282500D02*
X185890000Y-127282500D01*
X187110000Y-128502500D02*
X176890000Y-128502500D01*
%TO.C,D2*%
X127030000Y-69005000D02*
X127030000Y-74445000D01*
X127030000Y-74445000D02*
X129970000Y-74445000D01*
X128500000Y-67985000D02*
X128500000Y-69005000D01*
X128500000Y-75465000D02*
X128500000Y-74445000D01*
X129970000Y-69005000D02*
X127030000Y-69005000D01*
X129970000Y-69785000D02*
X127030000Y-69785000D01*
X129970000Y-69905000D02*
X127030000Y-69905000D01*
X129970000Y-70025000D02*
X127030000Y-70025000D01*
X129970000Y-74445000D02*
X129970000Y-69005000D01*
%TO.C,J2*%
X113090000Y-111335000D02*
X113090000Y-113835000D01*
X113090000Y-113835000D02*
X115590000Y-113835000D01*
X113390000Y-109515000D02*
X113390000Y-113535000D01*
X113390000Y-111225000D02*
X113890000Y-111225000D01*
X113390000Y-112035000D02*
X114390000Y-112035000D01*
X113390000Y-113535000D02*
X131110000Y-113535000D01*
X113890000Y-110015000D02*
X130610000Y-110015000D01*
X113890000Y-111225000D02*
X113890000Y-110015000D01*
X114390000Y-112035000D02*
X114390000Y-113535000D01*
X130110000Y-112035000D02*
X130110000Y-113535000D01*
X130610000Y-110015000D02*
X130610000Y-111225000D01*
X130610000Y-111225000D02*
X131110000Y-111225000D01*
X131110000Y-109515000D02*
X113390000Y-109515000D01*
X131110000Y-112035000D02*
X130110000Y-112035000D01*
X131110000Y-113535000D02*
X131110000Y-109515000D01*
%TO.C,D7*%
X174030000Y-97505000D02*
X174030000Y-102945000D01*
X174030000Y-101925000D02*
X176970000Y-101925000D01*
X174030000Y-102045000D02*
X176970000Y-102045000D01*
X174030000Y-102165000D02*
X176970000Y-102165000D01*
X174030000Y-102945000D02*
X176970000Y-102945000D01*
X175500000Y-96485000D02*
X175500000Y-97505000D01*
X175500000Y-103965000D02*
X175500000Y-102945000D01*
X176970000Y-97505000D02*
X174030000Y-97505000D01*
X176970000Y-102945000D02*
X176970000Y-97505000D01*
%TO.C,J1*%
X113390000Y-59415000D02*
X113390000Y-63435000D01*
X113390000Y-60915000D02*
X114390000Y-60915000D01*
X113390000Y-63435000D02*
X131110000Y-63435000D01*
X113890000Y-61725000D02*
X113390000Y-61725000D01*
X113890000Y-62935000D02*
X113890000Y-61725000D01*
X114390000Y-60915000D02*
X114390000Y-59415000D01*
X130110000Y-60915000D02*
X130110000Y-59415000D01*
X130610000Y-61725000D02*
X130610000Y-62935000D01*
X130610000Y-62935000D02*
X113890000Y-62935000D01*
X131110000Y-59415000D02*
X113390000Y-59415000D01*
X131110000Y-60915000D02*
X130110000Y-60915000D01*
X131110000Y-61725000D02*
X130610000Y-61725000D01*
X131110000Y-63435000D02*
X131110000Y-59415000D01*
X131410000Y-59115000D02*
X128910000Y-59115000D01*
X131410000Y-61615000D02*
X131410000Y-59115000D01*
%TO.C,J3*%
X172890000Y-59690000D02*
X172890000Y-63710000D01*
X172890000Y-61190000D02*
X173890000Y-61190000D01*
X172890000Y-63710000D02*
X190610000Y-63710000D01*
X173390000Y-62000000D02*
X172890000Y-62000000D01*
X173390000Y-63210000D02*
X173390000Y-62000000D01*
X173890000Y-61190000D02*
X173890000Y-59690000D01*
X189610000Y-61190000D02*
X189610000Y-59690000D01*
X190110000Y-62000000D02*
X190110000Y-63210000D01*
X190110000Y-63210000D02*
X173390000Y-63210000D01*
X190610000Y-59690000D02*
X172890000Y-59690000D01*
X190610000Y-61190000D02*
X189610000Y-61190000D01*
X190610000Y-62000000D02*
X190110000Y-62000000D01*
X190610000Y-63710000D02*
X190610000Y-59690000D01*
X190910000Y-59390000D02*
X188410000Y-59390000D01*
X190910000Y-61890000D02*
X190910000Y-59390000D01*
%TO.C,D8*%
X186450000Y-97505000D02*
X186450000Y-102945000D01*
X186450000Y-101925000D02*
X189390000Y-101925000D01*
X186450000Y-102045000D02*
X189390000Y-102045000D01*
X186450000Y-102165000D02*
X189390000Y-102165000D01*
X186450000Y-102945000D02*
X189390000Y-102945000D01*
X187920000Y-96485000D02*
X187920000Y-97505000D01*
X187920000Y-103965000D02*
X187920000Y-102945000D01*
X189390000Y-97505000D02*
X186450000Y-97505000D01*
X189390000Y-102945000D02*
X189390000Y-97505000D01*
%TO.C,D6*%
X174030000Y-69000000D02*
X174030000Y-74440000D01*
X174030000Y-74440000D02*
X176970000Y-74440000D01*
X175500000Y-67980000D02*
X175500000Y-69000000D01*
X175500000Y-75460000D02*
X175500000Y-74440000D01*
X176970000Y-69000000D02*
X174030000Y-69000000D01*
X176970000Y-69780000D02*
X174030000Y-69780000D01*
X176970000Y-69900000D02*
X174030000Y-69900000D01*
X176970000Y-70020000D02*
X174030000Y-70020000D01*
X176970000Y-74440000D02*
X176970000Y-69000000D01*
%TO.C,D1*%
X114530000Y-69005000D02*
X114530000Y-74445000D01*
X114530000Y-74445000D02*
X117470000Y-74445000D01*
X116000000Y-67985000D02*
X116000000Y-69005000D01*
X116000000Y-75465000D02*
X116000000Y-74445000D01*
X117470000Y-69005000D02*
X114530000Y-69005000D01*
X117470000Y-69785000D02*
X114530000Y-69785000D01*
X117470000Y-69905000D02*
X114530000Y-69905000D01*
X117470000Y-70025000D02*
X114530000Y-70025000D01*
X117470000Y-74445000D02*
X117470000Y-69005000D01*
%TO.C,J4*%
X172590000Y-111635000D02*
X172590000Y-114135000D01*
X172590000Y-114135000D02*
X175090000Y-114135000D01*
X172890000Y-109815000D02*
X172890000Y-113835000D01*
X172890000Y-111525000D02*
X173390000Y-111525000D01*
X172890000Y-112335000D02*
X173890000Y-112335000D01*
X172890000Y-113835000D02*
X190610000Y-113835000D01*
X173390000Y-110315000D02*
X190110000Y-110315000D01*
X173390000Y-111525000D02*
X173390000Y-110315000D01*
X173890000Y-112335000D02*
X173890000Y-113835000D01*
X189610000Y-112335000D02*
X189610000Y-113835000D01*
X190110000Y-110315000D02*
X190110000Y-111525000D01*
X190110000Y-111525000D02*
X190610000Y-111525000D01*
X190610000Y-109815000D02*
X172890000Y-109815000D01*
X190610000Y-112335000D02*
X189610000Y-112335000D01*
X190610000Y-113835000D02*
X190610000Y-109815000D01*
%TO.C,D5*%
X186530000Y-69080000D02*
X186530000Y-74520000D01*
X186530000Y-74520000D02*
X189470000Y-74520000D01*
X188000000Y-68060000D02*
X188000000Y-69080000D01*
X188000000Y-75540000D02*
X188000000Y-74520000D01*
X189470000Y-69080000D02*
X186530000Y-69080000D01*
X189470000Y-69860000D02*
X186530000Y-69860000D01*
X189470000Y-69980000D02*
X186530000Y-69980000D01*
X189470000Y-70100000D02*
X186530000Y-70100000D01*
X189470000Y-74520000D02*
X189470000Y-69080000D01*
%TO.C,U3*%
D10*
X137500000Y-64225000D02*
X166500000Y-64225000D01*
X166500000Y-113725000D01*
X137500000Y-113725000D01*
X137500000Y-64225000D01*
X140000000Y-60475000D02*
X164000000Y-60475000D01*
X164000000Y-64225000D01*
X140000000Y-64225000D01*
X140000000Y-60475000D01*
X148500000Y-107225000D02*
X155500000Y-107225000D01*
X155500000Y-113725000D01*
X148500000Y-113725000D01*
X148500000Y-107225000D01*
D14*
%TO.C,D4*%
X114530000Y-96505000D02*
X114530000Y-101945000D01*
X114530000Y-100925000D02*
X117470000Y-100925000D01*
X114530000Y-101045000D02*
X117470000Y-101045000D01*
X114530000Y-101165000D02*
X117470000Y-101165000D01*
X114530000Y-101945000D02*
X117470000Y-101945000D01*
X116000000Y-95485000D02*
X116000000Y-96505000D01*
X116000000Y-102965000D02*
X116000000Y-101945000D01*
X117470000Y-96505000D02*
X114530000Y-96505000D01*
X117470000Y-101945000D02*
X117470000Y-96505000D01*
%TO.C,U2*%
X171430000Y-82265000D02*
X171430000Y-87565000D01*
X171430000Y-87565000D02*
X191870000Y-87565000D01*
X191870000Y-82265000D02*
X171430000Y-82265000D01*
X191870000Y-83915000D02*
X191870000Y-82265000D01*
X191870000Y-87565000D02*
X191870000Y-85915000D01*
X191870000Y-85915000D02*
G75*
G02*
X191870000Y-83915000I0J1000000D01*
G01*
%TD*%
M02*
